<?xml version="1.0" encoding="utf-8"?>
<!-- Generator: Adobe Illustrator 19.0.0, SVG Export Plug-In . SVG Version: 6.00 Build 0)  -->
<svg version="1.1" id="layer" xmlns="http://www.w3.org/2000/svg" xmlns:xlink="http://www.w3.org/1999/xlink" x="0px" y="0px"
	 viewBox="-153 -46 652 652" style="enable-background:new -153 -46 652 652;" xml:space="preserve">
<style type="text/css">
	.st0{fill:#0075BF;}
	.st1{fill:#FFFFFF;}
	.st2{fill:#E53312;}
	.st3{fill:#EF7D00;}
</style>
<polygon class="st0" points="468.7,365 -131.3,365 -131.3,247.2 269.3,247.1 369.1,279.3 468.7,247.1 468.7,247.1 "/>
<g>
	<path d="M-83.3,400.3l-3.2,12.7c0.8,0.1,1.4,0.2,1.8,0.2c0.7,0,1.6-0.1,2.6-0.4l-0.2,1.2c-1.1,0.2-1.9,0.3-2.5,0.3
		c-0.6,0-1.5-0.1-2.8-0.2c-1.1-0.1-1.9-0.2-2.6-0.2c-1.3,0-2.7,0.2-4.4,0.5l0.4-1.3c1.7-0.4,2.9-0.9,3.4-1.3
		c0.8-0.7,1.4-1.9,1.8-3.6l3.3-13.4c0.4-1.7,0.6-2.7,0.6-3c0-0.3-0.1-0.5-0.3-0.7c-0.2-0.1-0.6-0.2-1.2-0.2l0.3-1.1
		c1.6,0,3.5-0.3,5.8-0.9c-0.2,0.6-0.4,1.5-0.7,2.7l-1.8,7c0.8,0.2,1.4,0.2,1.9,0.2c2,0,3.7-0.7,5.1-2.1c1.4-1.4,2.1-3,2.1-4.9
		c0-1.5-0.6-2.7-1.7-3.7c-1.1-1-2.7-1.4-4.6-1.4c-2.5,0-4.9,0.6-7.3,1.8c-2.4,1.2-4.2,2.7-5.4,4.5c-1.2,1.8-1.8,3.7-1.8,5.6
		c0,1.5,0.6,2.8,1.8,3.8c0.6,0.5,1,0.9,1.1,1.1c0.1,0.2,0.2,0.5,0.2,0.8c0,0.3-0.1,0.6-0.4,0.9c-0.3,0.2-0.6,0.4-0.9,0.4
		c-0.9,0-1.6-0.5-2.3-1.5c-0.9-1.3-1.3-2.9-1.3-4.8c0-2.5,0.7-4.7,2-6.9c1.3-2.1,3.4-3.9,6.1-5.3c2.7-1.4,5.6-2.1,8.7-2.1
		c2.8,0,5.2,0.5,7,1.6c1.8,1.1,2.8,2.6,2.8,4.7c0,2-0.8,3.8-2.5,5.5c-1.7,1.7-4,2.8-6.9,3.2c0.7,1.5,1.2,2.5,1.4,3
		c0.3,0.9,0.8,2.3,1.5,4.4c1.6,4.8,3.3,8.1,5,10.1c1.3,1.4,2.6,2.1,4.1,2.1c1.5,0,2.5-0.7,2.9-2.1c0.2-0.9,0.5-1.4,0.7-1.6
		c0.3-0.3,0.7-0.4,1-0.4c0.4,0,0.7,0.1,1,0.4c0.3,0.3,0.4,0.6,0.4,1c0,1-0.5,1.9-1.6,2.8c-1.1,0.9-2.5,1.3-4.2,1.3
		c-1.5,0-3-0.4-4.4-1.1c-1.4-0.7-2.8-2-4.1-3.7c-1.3-1.7-2.5-3.7-3.5-6.1c-0.5-1.2-1.2-3.4-2.2-6.6c-0.6-1.9-0.9-3.1-1.1-3.5l-0.6,0
		C-82.8,400.3-83,400.3-83.3,400.3"/>
	<path d="M-53.7,408l0.8,1.1c-3.9,3.7-7.2,5.6-10,5.6c-1.1,0-2-0.4-2.6-1.1c-0.6-0.8-0.9-2-0.9-3.7c0-3.4,1-6.8,3.1-10.2
		c2.3-3.8,5.1-5.8,8.3-5.8c1.1,0,2,0.3,2.6,0.8c0.6,0.6,0.9,1.3,0.9,2.3c0,1-0.4,2.1-1.1,3.1c-0.7,1-2,2.1-3.8,3.1
		c-0.9,0.5-2.9,1.5-5.9,2.8c-0.1,0.9-0.2,1.7-0.2,2.5c0,1.1,0.2,1.9,0.5,2.4c0.4,0.4,0.9,0.7,1.6,0.7c0.7,0,1.4-0.2,2.1-0.5
		C-57.3,410.5-55.7,409.5-53.7,408 M-62.1,404.6c2.6-1.1,4.5-2.4,5.8-3.7c0.9-0.9,1.3-1.8,1.3-2.7c0-0.7-0.2-1.2-0.5-1.6
		c-0.4-0.4-0.8-0.6-1.4-0.6c-0.6,0-1.2,0.2-1.7,0.7c-0.8,0.6-1.4,1.5-1.9,2.7C-61.2,401-61.8,402.7-62.1,404.6"/>
	<path d="M-38.5,408.3l0.8,0.9c-1.2,1.4-2.7,2.7-4.4,3.8c-1.7,1.2-3.1,1.7-4.2,1.7c-0.5,0-0.9-0.2-1.2-0.6c-0.3-0.4-0.5-0.9-0.5-1.5
		c0-1.3,0.5-3.9,1.5-7.9l2.6-10.5c0.9-3.8,1.7-6.3,2.4-7.6c1-2,2.4-3.5,4.2-4.5c1.8-1.1,3.7-1.6,5.7-1.6c0.7,0,1.2,0.2,1.6,0.5
		c0.4,0.3,0.6,0.7,0.6,1.2c0,0.5-0.2,0.9-0.6,1.3c-0.4,0.3-0.9,0.5-1.7,0.5c-0.5,0-1.1-0.1-2-0.2c-0.8-0.1-1.5-0.2-2.1-0.2
		c-0.7,0-1.2,0.1-1.5,0.4c-0.5,0.4-0.9,1.2-1.2,2.4c-0.4,1.2-1,3.6-1.8,7.2l-2.4,10c-1.2,5-1.8,7.6-1.8,7.9c0,0.5,0.2,0.8,0.5,0.8
		c0.4,0,0.9-0.2,1.5-0.6C-41.1,410.6-39.8,409.5-38.5,408.3"/>
	<path d="M-19.2,393.5l1.6-0.3l-1.8,6.1c-0.7,2.4-1.4,5.2-2,8.3c-0.4,1.7-0.5,2.8-0.5,3.3c0,0.5,0.2,0.7,0.6,0.7
		c0.3,0,0.7-0.2,1.2-0.5c1-0.6,1.9-1.3,2.8-2.2l0.8,0.9c-1.8,1.7-3,2.6-3.5,3c-1,0.7-2,1.2-2.9,1.6c-0.6,0.2-1.2,0.3-1.8,0.3
		c-0.4,0-0.7-0.1-0.9-0.3c-0.2-0.2-0.3-0.5-0.3-0.8c0-0.2,0.1-0.6,0.2-1l1-3.3c-1.4,1.6-3,3.1-4.9,4.2c-1.2,0.7-2.2,1.1-3.2,1.1
		c-0.9,0-1.6-0.3-2.1-1c-0.7-0.9-1-2-1-3.4c0-1.7,0.4-3.6,1.3-5.6c0.9-2.1,2.1-4,3.6-5.6s3.1-2.9,4.8-3.7c1.3-0.6,2.9-0.9,5-0.9
		c0.5,0,1,0,1.5,0.1L-19.2,393.5z M-22.2,397.2c-0.9-0.2-1.6-0.3-2.2-0.3c-1.4,0-2.7,0.4-3.8,1.2c-1.1,0.8-2.1,2.2-3,4.2
		c-0.9,2-1.4,4.1-1.4,6.1c0,1.1,0.2,1.9,0.5,2.3c0.4,0.5,0.8,0.7,1.4,0.7c1.1,0,2.3-0.6,3.5-1.8c1.3-1.2,2.2-2.9,2.8-5.1
		L-22.2,397.2z"/>
	<path d="M-7.1,390.2l3.8-1.5l-1.7,6.7h4.9l-0.4,1.7h-4.9l-2.1,8c-0.7,2.4-1,4.1-1,5c0,0.4,0.1,0.7,0.3,0.9c0.2,0.2,0.4,0.3,0.7,0.3
		c0.5,0,1.3-0.3,2.3-0.9c1.3-0.8,2.6-1.7,3.8-2.7l0.9,1.1c-3.5,2.6-5.8,4.2-7,4.8c-1.2,0.6-2.1,0.9-2.8,0.9c-0.6,0-1.1-0.2-1.4-0.6
		c-0.3-0.4-0.5-1.1-0.5-2.1c0-1.1,0.3-2.9,0.9-5.3l2.4-9.5h-3.9l0.4-1.7h3.9L-7.1,390.2z"/>
	<path d="M3.8,399.5l-1-0.8c1.6-1.8,3-3,4.3-3.7c1.3-0.7,2.4-1.1,3.4-1.1c0.5,0,0.9,0.1,1.2,0.3c0.3,0.2,0.4,0.5,0.4,0.9
		c0,0.5-0.5,2.4-1.5,5.9c-1.7,5.7-2.5,9.1-2.5,10.2c0,0.2,0.1,0.4,0.2,0.6c0.1,0.2,0.2,0.2,0.4,0.2c0.5,0,1.8-1,3.9-3l0.9,0.9
		c-2.2,2.1-3.8,3.4-4.8,3.9c-1,0.6-1.8,0.9-2.5,0.9c-0.6,0-1-0.2-1.3-0.5c-0.3-0.4-0.5-0.8-0.5-1.5c0-2,1.2-6.9,3.6-14.6
		c0.1-0.4,0.2-0.7,0.2-1c0-0.3-0.1-0.5-0.4-0.5c-0.3,0-0.7,0.1-1.1,0.4C6.1,397.3,5.2,398.1,3.8,399.5 M13.2,383.7
		c0.5,0,0.9,0.2,1.2,0.5c0.3,0.3,0.5,0.7,0.5,1.3c0,0.7-0.2,1.3-0.7,1.9c-0.5,0.5-1,0.8-1.6,0.8c-0.5,0-0.9-0.2-1.2-0.5
		c-0.3-0.3-0.5-0.8-0.5-1.3c0-0.7,0.2-1.3,0.7-1.8C12,383.9,12.5,383.7,13.2,383.7"/>
	<path d="M27.7,393.9c1.6,0,2.9,0.6,3.9,1.9c1,1.2,1.6,3,1.6,5.2c0,3.5-1.2,6.7-3.7,9.5c-2.5,2.8-5.1,4.2-7.9,4.2
		c-1.7,0-3.1-0.6-4.1-1.7c-1-1.1-1.6-2.6-1.6-4.6c0-3.3,1-6.4,2.9-9.3C21.2,395.7,24.2,393.9,27.7,393.9 M25.7,395.7
		c-1.3,0-2.7,1-3.9,2.9c-1.3,1.9-1.9,4.6-1.9,8c0,2.1,0.4,3.7,1.2,4.9c0.6,0.9,1.3,1.3,2.3,1.3c1.3,0,2.6-0.8,3.7-2.5
		c1.4-2.1,2.1-4.8,2.1-8c0-2.4-0.3-4.1-1-5.1C27.5,396.2,26.7,395.7,25.7,395.7"/>
	<path d="M37.3,399.5l-0.8-0.8c2-2,3.7-3.3,4.9-3.9c1.2-0.6,2.2-1,3.1-1c0.3,0,0.6,0.1,0.8,0.2c0.2,0.1,0.3,0.3,0.3,0.5
		c0,0.1,0,0.4-0.1,0.8l-1.1,4.8c1.6-1.8,3.6-3.5,6.1-5c1.3-0.8,2.4-1.2,3.2-1.2c0.6,0,1.1,0.2,1.5,0.6c0.3,0.4,0.5,1,0.5,1.7
		c0,0.5-0.1,1.1-0.2,1.7c-0.3,1-0.9,3.3-2,6.8c-1,3.2-1.5,5.4-1.5,6.5c0,0.3,0.1,0.6,0.1,0.7c0.1,0.2,0.2,0.2,0.4,0.2
		c0.5,0,1.2-0.4,2.2-1.3c0.7-0.6,1.4-1.2,2.1-1.8l0.6,0.9c-1.5,1.6-3,2.9-4.5,3.9c-1,0.6-1.8,0.9-2.5,0.9c-0.6,0-1.1-0.2-1.4-0.7
		c-0.3-0.4-0.5-1.1-0.5-2.1c0-1.4,0.9-5,2.6-10.6c0.5-2,0.8-3.2,0.8-3.5c0-0.5-0.3-0.7-0.9-0.7c-0.6,0-1.5,0.3-2.5,1
		c-1.5,1-2.7,2.2-3.8,3.5c-0.6,0.9-1.2,2.2-1.6,4.1l-1.9,8.3h-3.6c0.7-2.4,1.2-4.7,1.7-6.9l2.1-9.1c0.1-0.4,0.1-0.6,0.1-0.8
		c0-0.4-0.2-0.6-0.5-0.6c-0.3,0-0.6,0.2-1.1,0.5C39.1,397.8,38.2,398.6,37.3,399.5"/>
	<path d="M70.8,393.9c1.4,0,2.5,0.3,3.3,0.8c0.8,0.5,1.2,1.2,1.2,1.9c0,0.4-0.2,0.8-0.5,1.1c-0.3,0.3-0.7,0.5-1.2,0.5
		c-0.3,0-0.6-0.1-0.8-0.2c-0.2-0.1-0.5-0.5-1-1c-0.8-1-1.6-1.6-2.3-1.6c-0.7,0-1.2,0.3-1.7,0.8c-0.5,0.5-0.8,1.1-0.8,1.9
		c0,0.7,0.2,1.3,0.5,1.9c0.3,0.6,1.1,1.6,2.4,3c1.8,1.9,2.6,3.7,2.6,5.4c0,1.7-0.7,3.2-2.1,4.4c-1.4,1.3-3.3,1.9-5.5,1.9
		c-1.9,0-3.3-0.4-4.2-1.2c-0.9-0.8-1.4-1.7-1.4-2.9c0-0.6,0.2-1,0.5-1.4c0.3-0.4,0.8-0.5,1.3-0.5c0.4,0,0.8,0.1,1.1,0.4
		c0.3,0.3,0.5,0.7,0.5,1c0,0.2,0,0.4,0,0.6c0,0.2,0,0.4,0,0.5c0,0.5,0.2,1,0.7,1.3c0.4,0.4,1,0.6,1.8,0.6c0.9,0,1.6-0.2,2.3-0.4
		c0.7-0.3,1.2-0.7,1.5-1.3c0.4-0.6,0.5-1.2,0.5-1.8c0-0.6-0.2-1.1-0.5-1.7c-0.3-0.6-1.1-1.5-2.3-2.8c-1.6-1.8-2.5-3.6-2.5-5.3
		c0-1.6,0.6-2.9,1.9-4.1C67.2,394.5,68.8,393.9,70.8,393.9"/>
	<path d="M96.3,408.9l0.6,0.9c-1.5,1.6-3,2.9-4.5,3.9c-1,0.7-1.9,1-2.6,1c-0.6,0-1-0.2-1.3-0.7c-0.3-0.4-0.5-1.1-0.5-2.1
		c0-0.6,0.1-1.6,0.4-2.8c0.3-1.2,1-3.8,2.2-7.8c0.5-2,0.8-3.1,0.8-3.5c0-0.5-0.3-0.8-0.8-0.8c-0.7,0-1.5,0.3-2.5,1
		c-1.4,0.9-2.6,2.1-3.7,3.5c-0.7,0.9-1.2,2.3-1.7,4.1l-1.9,8.3h-3.6c0.8-2.8,1.4-5.1,1.8-6.8l3.5-15.3c0.6-2.8,1.5-5,2.5-6.5
		c1-1.5,2.4-2.8,4.1-3.7c1.7-0.9,3.3-1.4,5-1.4c0.7,0,1.2,0.2,1.6,0.5c0.4,0.3,0.6,0.8,0.6,1.3c0,0.4-0.2,0.8-0.6,1.1
		c-0.4,0.3-0.9,0.5-1.6,0.5c-0.4,0-0.9,0-1.5-0.1c-1.4-0.2-2.3-0.3-2.8-0.3c-0.7,0-1.3,0.3-1.8,0.9c-0.5,0.6-0.9,2-1.4,4.2
		l-2.7,11.8c1.9-2,4-3.7,6.2-5c1.3-0.8,2.4-1.2,3.2-1.2c0.6,0,1.1,0.2,1.5,0.5c0.4,0.4,0.5,0.9,0.5,1.5c0,0.5-0.1,1.1-0.2,1.6
		c-0.2,0.9-0.7,2.6-1.5,5.1c-1,3.4-1.6,5.5-1.8,6.4c-0.2,0.8-0.3,1.6-0.3,2.2c0,0.3,0,0.4,0.1,0.6c0.1,0.1,0.2,0.2,0.4,0.2
		c0.4,0,1.1-0.4,2.1-1.4C94.7,410.2,95.4,409.6,96.3,408.9"/>
	<path d="M100.6,399.5l-1-0.8c1.6-1.8,3-3,4.3-3.7c1.3-0.7,2.4-1.1,3.4-1.1c0.5,0,0.9,0.1,1.2,0.3c0.3,0.2,0.4,0.5,0.4,0.9
		c0,0.5-0.5,2.4-1.5,5.9c-1.7,5.7-2.5,9.1-2.5,10.2c0,0.2,0.1,0.4,0.2,0.6c0.1,0.2,0.2,0.2,0.4,0.2c0.5,0,1.8-1,3.9-3l0.9,0.9
		c-2.2,2.1-3.8,3.4-4.8,3.9c-1,0.6-1.8,0.9-2.5,0.9c-0.5,0-1-0.2-1.3-0.5c-0.3-0.4-0.5-0.8-0.5-1.5c0-2,1.2-6.9,3.6-14.6
		c0.1-0.4,0.2-0.7,0.2-1c0-0.3-0.1-0.5-0.4-0.5c-0.3,0-0.7,0.1-1.1,0.4C102.9,397.3,102,398.1,100.6,399.5 M109.9,383.7
		c0.5,0,0.9,0.2,1.2,0.5c0.3,0.3,0.5,0.7,0.5,1.3c0,0.7-0.2,1.3-0.7,1.9c-0.5,0.5-1,0.8-1.6,0.8c-0.5,0-0.9-0.2-1.2-0.5
		c-0.3-0.3-0.5-0.8-0.5-1.3c0-0.7,0.2-1.3,0.7-1.8C108.8,383.9,109.3,383.7,109.9,383.7"/>
	<path d="M113.1,399.9l-0.9-1c1.5-1.7,2.9-3,4.3-3.8c1.4-0.8,2.7-1.2,3.7-1.2c0.4,0,0.7,0.1,0.9,0.3c0.2,0.2,0.4,0.5,0.4,0.9
		c0,0.5-0.1,0.9-0.2,1.4c-0.1,0.5-0.4,1.6-1,3.5c2.4-2.4,4.1-3.9,5-4.5c1.5-1,2.9-1.5,4.1-1.5c0.8,0,1.5,0.4,2,1.1
		c0.6,0.8,0.8,1.9,0.8,3.5c0,3.8-1.2,7.5-3.6,11c-2.4,3.5-5.1,5.2-8,5.2c-1.1,0-2.3-0.3-3.4-0.9l-2,7.9c-0.1,0.5-0.2,0.9-0.2,1.2
		c0,0.6,0.2,1,0.7,1.3c0.7,0.4,2.1,0.7,4.3,1l-0.3,1.2c-2.6-0.2-4.6-0.3-6-0.3c-1.5,0-3.5,0.1-5.9,0.3l0.3-1.2
		c1.2-0.1,2.1-0.5,2.6-1c0.5-0.5,1-1.5,1.3-2.9l4.3-18.1c0.8-3.4,1.2-5.3,1.2-5.6c0-0.4-0.2-0.6-0.6-0.6
		C116.4,396.8,115,397.8,113.1,399.9 M117.9,411.1c1.3,1.3,2.5,1.9,3.9,1.9c1.9,0,3.6-1.5,5-4.5c1.4-3,2.2-5.9,2.2-8.7
		c0-0.9-0.2-1.6-0.6-2.1c-0.4-0.5-0.9-0.7-1.6-0.7c-0.8,0-1.6,0.4-2.6,1.1c-1.5,1.2-2.6,2.3-3.4,3.5c-0.6,0.8-1.1,2.3-1.6,4.3
		L117.9,411.1z"/>
	<path d="M154.6,398.1c1.3-1.4,2.6-2.5,3.8-3.1c1.2-0.7,2.3-1,3.3-1c1.1,0,2,0.5,2.7,1.3c0.7,0.9,1,2.2,1,4c0,2.6-0.6,5.2-1.8,7.7
		c-1.2,2.5-2.7,4.4-4.6,5.7c-1.8,1.3-3.6,2-5.3,2c-1.5,0-2.6-0.4-3.5-1.3c-0.9-0.9-1.3-2-1.3-3.3c0-1.1,0.2-2.6,0.7-4.6l2.8-12.6
		c0.7-3.1,1.6-5.4,2.6-7.1c1-1.6,2.4-2.9,4.1-3.9c1.7-1,3.3-1.4,4.8-1.4c0.9,0,1.6,0.1,2,0.5c0.4,0.3,0.6,0.7,0.6,1.2
		c0,0.5-0.2,0.9-0.6,1.2c-0.4,0.3-0.9,0.5-1.6,0.5c-0.5,0-1.4-0.1-2.7-0.4c-0.6-0.1-1.1-0.2-1.5-0.2c-0.8,0-1.4,0.4-1.9,1.3
		c-0.4,0.7-0.9,2.4-1.5,5.1L154.6,398.1z M159.3,396.6c-0.8,0-1.7,0.5-2.8,1.4c-1.1,0.9-2.1,2.6-3,5c-1,2.4-1.4,4.7-1.4,7
		c0,0.9,0.3,1.6,0.8,2.2c0.5,0.6,1.2,0.9,1.9,0.9c1.8,0,3.3-1.4,4.7-4.2c1.4-2.8,2.1-5.6,2.1-8.3c0-1.3-0.3-2.3-0.8-3.1
		C160.4,396.9,159.9,396.6,159.3,396.6"/>
	<path d="M181.5,408l0.8,1.1c-3.9,3.7-7.2,5.6-10,5.6c-1.1,0-2-0.4-2.6-1.1c-0.6-0.8-0.9-2-0.9-3.7c0-3.4,1-6.8,3.1-10.2
		c2.3-3.8,5.1-5.8,8.3-5.8c1.1,0,2,0.3,2.6,0.8c0.6,0.6,0.9,1.3,0.9,2.3c0,1-0.4,2.1-1.1,3.1c-0.7,1-2,2.1-3.8,3.1
		c-0.9,0.5-2.9,1.5-5.9,2.8c-0.1,0.9-0.2,1.7-0.2,2.5c0,1.1,0.2,1.9,0.5,2.4c0.4,0.4,0.9,0.7,1.6,0.7c0.7,0,1.4-0.2,2.1-0.5
		C178,410.5,179.5,409.5,181.5,408 M173.2,404.6c2.6-1.1,4.5-2.4,5.8-3.7c0.9-0.9,1.3-1.8,1.3-2.7c0-0.7-0.2-1.2-0.5-1.6
		c-0.4-0.4-0.8-0.6-1.4-0.6c-0.6,0-1.2,0.2-1.7,0.7c-0.8,0.6-1.4,1.5-1.9,2.7C174,401,173.5,402.7,173.2,404.6"/>
	<path d="M186.7,398.8l-0.8-1.1l1.8-1.2c1.7-1.2,2.9-1.9,3.6-2.3c0.4-0.2,0.8-0.3,1.1-0.3c0.3,0,0.7,0.2,1,0.6
		c1.4,1.8,2.6,4.1,3.5,7.1c0.9,3,1.4,5.9,1.4,8.7c0,0.4,0,0.9,0,1.7c2.7-4.9,4-8.9,4-11.8c0-0.6-0.1-1.4-0.4-2.4
		c-0.3-1.1-0.4-1.9-0.4-2.4c0-0.5,0.1-0.8,0.4-1.1c0.3-0.3,0.7-0.5,1.1-0.5c0.6,0,1,0.2,1.3,0.6c0.3,0.4,0.5,1,0.5,1.9
		c0,2-0.5,4.6-1.4,7.7c-0.9,3.1-2.4,6.4-4.4,9.9c-2,3.5-3.9,6.1-5.5,7.9c-1.7,1.7-3.3,2.9-4.8,3.7c-1.6,0.7-3,1.1-4.4,1.1
		c-1,0-1.8-0.2-2.4-0.6c-0.5-0.4-0.8-0.9-0.8-1.4c0-0.5,0.2-0.9,0.6-1.2c0.4-0.4,1-0.5,1.7-0.5c0.5,0,1.3,0.1,2.2,0.3
		c1,0.2,1.7,0.3,2.1,0.3c1,0,2-0.4,3.1-1.2c1.5-1.1,2.7-2.4,3.5-4c0.9-1.5,1.3-3.1,1.3-4.7c0-2.2-0.3-4.9-1-8
		c-0.7-3.1-1.6-5.5-2.7-7.1c-0.6-0.8-1.2-1.3-1.9-1.3C189.3,397.2,188.2,397.7,186.7,398.8"/>
	<path d="M219.4,393.9c1.6,0,2.9,0.6,3.9,1.9c1.1,1.2,1.6,3,1.6,5.2c0,3.5-1.2,6.7-3.7,9.5c-2.5,2.8-5.1,4.2-7.9,4.2
		c-1.7,0-3.1-0.6-4.1-1.7c-1-1.1-1.6-2.6-1.6-4.6c0-3.3,1-6.4,2.9-9.3C212.8,395.7,215.8,393.9,219.4,393.9 M217.3,395.7
		c-1.3,0-2.7,1-3.9,2.9c-1.3,1.9-1.9,4.6-1.9,8c0,2.1,0.4,3.7,1.2,4.9c0.6,0.9,1.3,1.3,2.3,1.3c1.3,0,2.6-0.8,3.7-2.5
		c1.4-2.1,2.1-4.8,2.1-8c0-2.4-0.3-4.1-1-5.1C219.1,396.2,218.3,395.7,217.3,395.7"/>
	<path d="M229,399.5l-0.8-0.8c2-2,3.7-3.3,4.9-3.9c1.2-0.6,2.2-1,3.1-1c0.3,0,0.6,0.1,0.8,0.2c0.2,0.1,0.3,0.3,0.3,0.5
		c0,0.1,0,0.4-0.1,0.8l-1.1,4.8c1.6-1.8,3.7-3.5,6.1-5c1.3-0.8,2.4-1.2,3.2-1.2c0.6,0,1.1,0.2,1.5,0.6c0.3,0.4,0.5,1,0.5,1.7
		c0,0.5-0.1,1.1-0.2,1.7c-0.3,1-0.9,3.3-2,6.8c-1,3.2-1.5,5.4-1.5,6.5c0,0.3,0,0.6,0.1,0.7c0.1,0.2,0.2,0.2,0.4,0.2
		c0.5,0,1.2-0.4,2.2-1.3c0.7-0.6,1.4-1.2,2.1-1.8l0.6,0.9c-1.5,1.6-3,2.9-4.6,3.9c-1,0.6-1.8,0.9-2.5,0.9c-0.6,0-1.1-0.2-1.4-0.7
		c-0.3-0.4-0.5-1.1-0.5-2.1c0-1.4,0.9-5,2.6-10.6c0.5-2,0.8-3.2,0.8-3.5c0-0.5-0.3-0.7-0.9-0.7c-0.6,0-1.5,0.3-2.5,1
		c-1.5,1-2.8,2.2-3.8,3.5c-0.6,0.9-1.2,2.2-1.6,4.1l-1.9,8.3h-3.6c0.7-2.4,1.2-4.7,1.7-6.9l2.1-9.1c0.1-0.4,0.1-0.6,0.1-0.8
		c0-0.4-0.2-0.6-0.5-0.6c-0.3,0-0.6,0.2-1.1,0.5C230.8,397.8,229.9,398.6,229,399.5"/>
	<path d="M270.3,409.1l0.7,0.9c-2.1,1.8-3.7,3-4.8,3.6c-1.4,0.8-2.6,1.2-3.4,1.2c-0.4,0-0.7-0.1-0.9-0.3c-0.2-0.2-0.4-0.5-0.4-0.7
		c0-0.3,0.1-0.7,0.3-1.3l0.8-2.9c-1.9,2.1-3.5,3.5-4.8,4.2c-1.3,0.7-2.4,1.1-3.4,1.1c-0.8,0-1.6-0.4-2.1-1.1
		c-0.6-0.7-0.9-1.8-0.9-3.3c0-2.3,0.8-4.9,2.3-7.8c1.6-2.9,3.3-5.1,5.2-6.5c1.9-1.4,3.6-2.1,5.2-2.1c0.3,0,0.9,0,1.6,0.2
		c0.8-3.1,1.5-5.4,2.1-6.8c0.7-1.4,1.6-2.6,2.7-3.7c1.1-1,2.3-1.8,3.7-2.4c1.4-0.6,2.7-0.8,3.9-0.8c0.6,0,1.1,0.2,1.5,0.5
		c0.4,0.3,0.6,0.8,0.6,1.3c0,0.5-0.2,0.9-0.5,1.2c-0.4,0.3-0.8,0.5-1.4,0.5c-0.4,0-1.1-0.1-2.2-0.2c-1.1-0.2-1.8-0.2-2.2-0.2
		c-0.6,0-1.1,0.2-1.5,0.5c-0.4,0.3-0.8,1.1-1.2,2.2c-0.3,0.7-0.8,3-1.7,6.9l-3.4,14.4c-0.4,1.7-0.6,2.8-0.6,3.4
		c0,0.6,0.2,0.9,0.7,0.9c0.3,0,0.6-0.1,1-0.3C267.7,411,268.8,410.3,270.3,409.1 M265.3,396.7c-1.3-0.3-2.2-0.4-2.7-0.4
		c-1.1,0-2.1,0.4-3.1,1.3c-1,0.8-2,2.5-3,4.9c-0.9,2.4-1.4,4.5-1.4,6.3c0,0.8,0.2,1.5,0.7,2c0.4,0.5,0.9,0.8,1.5,0.8
		c0.7,0,1.4-0.3,2.3-0.9c1.2-0.9,2.2-1.9,2.9-3.2c0.4-0.8,1-2.7,1.7-5.9L265.3,396.7z"/>
	<path d="M293.8,398.1c1.3-1.4,2.6-2.5,3.8-3.1c1.2-0.7,2.4-1,3.3-1c1.1,0,2,0.5,2.7,1.3c0.7,0.9,1,2.2,1,4c0,2.6-0.6,5.2-1.8,7.7
		c-1.2,2.5-2.7,4.4-4.5,5.7c-1.8,1.3-3.6,2-5.3,2c-1.5,0-2.6-0.4-3.5-1.3c-0.9-0.9-1.3-2-1.3-3.3c0-1.1,0.2-2.6,0.7-4.6l2.8-12.6
		c0.7-3.1,1.6-5.4,2.6-7.1c1-1.6,2.4-2.9,4.1-3.9c1.7-1,3.3-1.4,4.8-1.4c0.9,0,1.6,0.1,2,0.5c0.4,0.3,0.6,0.7,0.6,1.2
		c0,0.5-0.2,0.9-0.6,1.2c-0.4,0.3-0.9,0.5-1.6,0.5c-0.5,0-1.4-0.1-2.7-0.4c-0.6-0.1-1.1-0.2-1.5-0.2c-0.8,0-1.4,0.4-1.9,1.3
		c-0.4,0.7-0.9,2.4-1.5,5.1L293.8,398.1z M298.5,396.6c-0.8,0-1.7,0.5-2.8,1.4c-1.1,0.9-2.1,2.6-3,5c-1,2.4-1.4,4.7-1.4,7
		c0,0.9,0.3,1.6,0.8,2.2c0.5,0.6,1.2,0.9,1.9,0.9c1.8,0,3.3-1.4,4.7-4.2c1.4-2.8,2.1-5.6,2.1-8.3c0-1.3-0.3-2.3-0.8-3.1
		C299.6,396.9,299.1,396.6,298.5,396.6"/>
	<path d="M324.5,393.5l1.6-0.3l-1.8,6.1c-0.7,2.4-1.4,5.2-2,8.3c-0.4,1.7-0.5,2.8-0.5,3.3c0,0.5,0.2,0.7,0.6,0.7
		c0.3,0,0.7-0.2,1.2-0.5c1-0.6,1.9-1.3,2.8-2.2l0.8,0.9c-1.8,1.7-3,2.6-3.5,3c-1,0.7-2,1.2-2.9,1.6c-0.6,0.2-1.2,0.3-1.8,0.3
		c-0.4,0-0.7-0.1-0.9-0.3c-0.2-0.2-0.3-0.5-0.3-0.8c0-0.2,0.1-0.6,0.2-1l0.9-3.3c-1.4,1.6-3,3.1-4.9,4.2c-1.2,0.7-2.2,1.1-3.2,1.1
		c-0.9,0-1.6-0.3-2.1-1c-0.7-0.9-1-2-1-3.4c0-1.7,0.5-3.6,1.3-5.6c0.9-2.1,2.1-4,3.6-5.6c1.5-1.7,3.1-2.9,4.8-3.7
		c1.3-0.6,2.9-0.9,5-0.9c0.5,0,1,0,1.6,0.1L324.5,393.5z M321.6,397.2c-0.9-0.2-1.6-0.3-2.2-0.3c-1.4,0-2.7,0.4-3.7,1.2
		c-1.1,0.8-2.1,2.2-3,4.2c-0.9,2-1.4,4.1-1.4,6.1c0,1.1,0.2,1.9,0.5,2.3c0.4,0.5,0.8,0.7,1.4,0.7c1.1,0,2.3-0.6,3.5-1.8
		c1.3-1.2,2.2-2.9,2.8-5.1L321.6,397.2z"/>
	<path d="M330.7,399.5l-0.8-0.8c2-2,3.7-3.3,4.9-3.9c1.2-0.6,2.2-1,3.1-1c0.3,0,0.6,0.1,0.8,0.2c0.2,0.1,0.3,0.3,0.3,0.5
		c0,0.1,0,0.4-0.1,0.8l-1.1,4.8c1.6-1.8,3.7-3.5,6.1-5c1.3-0.8,2.4-1.2,3.2-1.2c0.6,0,1.1,0.2,1.5,0.6c0.4,0.4,0.5,1,0.5,1.7
		c0,0.5-0.1,1.1-0.2,1.7c-0.3,1-0.9,3.3-2,6.8c-1,3.2-1.5,5.4-1.5,6.5c0,0.3,0,0.6,0.1,0.7c0.1,0.2,0.2,0.2,0.4,0.2
		c0.5,0,1.2-0.4,2.2-1.3c0.7-0.6,1.4-1.2,2.1-1.8l0.6,0.9c-1.5,1.6-3,2.9-4.6,3.9c-1,0.6-1.8,0.9-2.5,0.9c-0.6,0-1.1-0.2-1.4-0.7
		c-0.3-0.4-0.5-1.1-0.5-2.1c0-1.4,0.9-5,2.6-10.6c0.5-2,0.8-3.2,0.8-3.5c0-0.5-0.3-0.7-0.9-0.7c-0.6,0-1.5,0.3-2.4,1
		c-1.5,1-2.8,2.2-3.8,3.5c-0.6,0.9-1.2,2.2-1.6,4.1l-1.9,8.3H331c0.7-2.4,1.3-4.7,1.7-6.9l2.1-9.1c0.1-0.4,0.1-0.6,0.1-0.8
		c0-0.4-0.2-0.6-0.5-0.6c-0.3,0-0.6,0.2-1.1,0.5C332.5,397.8,331.5,398.6,330.7,399.5"/>
	<path d="M357.3,414h-3.6l3.1-13c1.5-6.5,2.5-10.4,3-11.9c0.5-1.5,1-2.7,1.7-3.7c0.7-1,1.5-1.8,2.5-2.6c1-0.8,2.1-1.3,3.2-1.8
		c1.2-0.4,2.2-0.6,3-0.6c0.8,0,1.4,0.1,1.9,0.5c0.4,0.3,0.6,0.7,0.6,1.3c0,0.4-0.2,0.8-0.5,1.1c-0.4,0.3-0.8,0.5-1.4,0.5
		c-0.7,0-1.8-0.1-3.2-0.4c-0.5-0.1-0.9-0.1-1.2-0.1c-0.5,0-0.9,0.2-1.4,0.5c-0.4,0.4-0.8,1-1.2,1.9c-0.3,0.9-0.8,2.8-1.4,5.6
		l-1.7,7.6c1.5-1.7,3.1-3.1,4.8-4c1.2-0.7,2.4-1.1,3.6-1.1c0.8,0,1.5,0.3,2,0.9c0.5,0.6,0.8,1.4,0.8,2.3c0,1.7-0.9,3.2-2.6,4.6
		c-1.8,1.3-4.5,2.1-8.1,2.1c1.2,0.5,2.2,1.1,2.9,1.8c0.7,0.7,1.5,1.5,2.2,2.7c0.7,1.1,1.6,3,2.7,5.7c1.3,3.2,2.5,5.3,3.7,6.4
		c1.1,1.1,2.4,1.6,3.7,1.6c0.8,0,1.4-0.2,1.9-0.5c0.5-0.3,0.8-0.7,0.8-1c0-0.2-0.1-0.5-0.2-0.9c-0.2-0.4-0.3-0.8-0.3-1
		c0-0.4,0.1-0.7,0.4-1c0.3-0.3,0.6-0.4,1-0.4c0.4,0,0.8,0.2,1.1,0.5c0.3,0.4,0.5,0.8,0.5,1.4c0,1.1-0.5,2.2-1.6,3.1
		c-1.1,0.9-2.4,1.3-4.1,1.3c-1.7,0-3.3-0.4-4.7-1.3c-1.4-0.9-2.6-2.3-3.8-4.2c-0.7-1.1-1.9-3.7-3.6-7.6c-0.8-1.9-1.5-3.3-2.1-4.2
		c-0.5-0.7-1.2-1.5-2-2.2L357.3,414z M359.9,402.7c2.1,0,3.9-0.2,5.2-0.6c1.3-0.4,2.3-1,2.8-1.7c0.6-0.7,0.8-1.5,0.8-2.3
		c0-0.6-0.2-1.1-0.5-1.5c-0.3-0.4-0.7-0.5-1.2-0.5c-1.5,0-3.8,1.7-6.9,5L359.9,402.7z"/>
	<path d="M377.1,399.5l-1.1-0.8c1.6-1.8,3-3,4.4-3.7c1.3-0.7,2.4-1.1,3.3-1.1c0.5,0,0.9,0.1,1.2,0.3c0.3,0.2,0.4,0.5,0.4,0.9
		c0,0.5-0.5,2.4-1.6,5.9c-1.7,5.7-2.5,9.1-2.5,10.2c0,0.2,0.1,0.4,0.2,0.6c0.1,0.2,0.2,0.2,0.4,0.2c0.5,0,1.8-1,3.9-3l0.9,0.9
		c-2.2,2.1-3.8,3.4-4.8,3.9c-1,0.6-1.8,0.9-2.5,0.9c-0.6,0-1-0.2-1.3-0.5c-0.3-0.4-0.5-0.8-0.5-1.5c0-2,1.2-6.9,3.6-14.6
		c0.1-0.4,0.2-0.7,0.2-1c0-0.3-0.1-0.5-0.4-0.5c-0.3,0-0.7,0.1-1.1,0.4C379.4,397.3,378.5,398.1,377.1,399.5 M386.5,383.7
		c0.5,0,0.9,0.2,1.2,0.5c0.3,0.3,0.5,0.7,0.5,1.3c0,0.7-0.2,1.3-0.7,1.9c-0.5,0.5-1,0.8-1.6,0.8c-0.5,0-0.9-0.2-1.2-0.5
		c-0.3-0.3-0.5-0.8-0.5-1.3c0-0.7,0.2-1.3,0.7-1.8C385.3,383.9,385.8,383.7,386.5,383.7"/>
	<path d="M389.9,399.5l-0.8-0.8c2-2,3.7-3.3,4.9-3.9c1.2-0.6,2.3-1,3.1-1c0.3,0,0.6,0.1,0.8,0.2c0.2,0.1,0.3,0.3,0.3,0.5
		c0,0.1,0,0.4-0.1,0.8l-1.1,4.8c1.6-1.8,3.7-3.5,6.1-5c1.3-0.8,2.4-1.2,3.2-1.2c0.6,0,1.1,0.2,1.5,0.6c0.4,0.4,0.5,1,0.5,1.7
		c0,0.5-0.1,1.1-0.2,1.7c-0.3,1-0.9,3.3-2,6.8c-1,3.2-1.5,5.4-1.5,6.5c0,0.3,0,0.6,0.1,0.7c0.1,0.2,0.2,0.2,0.4,0.2
		c0.5,0,1.2-0.4,2.2-1.3c0.7-0.6,1.4-1.2,2.1-1.8l0.6,0.9c-1.5,1.6-3,2.9-4.6,3.9c-1,0.6-1.8,0.9-2.5,0.9c-0.6,0-1.1-0.2-1.4-0.7
		c-0.3-0.4-0.5-1.1-0.5-2.1c0-1.4,0.9-5,2.6-10.6c0.5-2,0.8-3.2,0.8-3.5c0-0.5-0.3-0.7-0.9-0.7c-0.6,0-1.5,0.3-2.5,1
		c-1.5,1-2.7,2.2-3.7,3.5c-0.6,0.9-1.2,2.2-1.6,4.1l-1.9,8.3h-3.6c0.7-2.4,1.2-4.7,1.8-6.9l2.1-9.1c0.1-0.4,0.1-0.6,0.1-0.8
		c0-0.4-0.2-0.6-0.5-0.6c-0.3,0-0.6,0.2-1.1,0.5C391.7,397.8,390.8,398.6,389.9,399.5"/>
	<path d="M429,393.8l1.9-0.4c-1.2,3.7-2.2,7.5-3.2,11.2c-0.7,2.7-1.2,4.9-1.5,6.7c-0.1,0.9-0.2,2-0.2,3.4c0,2.3-0.3,4.1-0.8,5.5
		c-0.7,2-1.9,3.5-3.7,4.7c-1.8,1.2-4,1.8-6.5,1.8c-2.1,0-3.8-0.5-5.1-1.5c-1.2-1-1.9-2.2-1.9-3.5c0-1.3,0.5-2.5,1.5-3.6
		c0.7-0.8,2.3-1.9,4.6-3.1c1.2-0.6,2.3-1.3,3.3-1.9c-1.2,0.6-2.1,0.9-2.8,0.9c-0.6,0-1.1-0.3-1.6-0.8c-0.4-0.5-0.7-1.3-0.7-2.2
		c0-2.9,0.9-5.8,2.6-8.7c1.7-2.9,3.8-5,6.3-6.5c1.5-0.9,3.4-1.3,5.7-1.3c0.4,0,1,0,1.7,0L429,393.8z M423.1,410.3
		c-1.1,1-3.2,2.5-6.3,4.7c-2.7,1.8-4.4,3.2-5,4c-0.6,0.8-0.9,1.7-0.9,2.6c0,0.9,0.4,1.7,1.2,2.4c0.8,0.7,1.8,1.1,2.9,1.1
		c1.1,0,2.1-0.3,3.2-0.8c1-0.5,1.9-1.3,2.7-2.3c0.8-1,1.3-2.2,1.6-3.4c0.3-1.3,0.4-3,0.4-5.1C422.8,413,422.9,412,423.1,410.3
		 M426.3,397.3c-0.8-0.1-1.4-0.2-2-0.2c-1.5,0-2.8,0.4-3.9,1.2c-1.1,0.8-2,2.1-2.8,4c-1.1,2.7-1.6,4.9-1.6,6.7
		c0,0.7,0.2,1.4,0.6,1.9c0.4,0.5,0.9,0.8,1.4,0.8c0.6,0,1.4-0.3,2.4-0.9c0.9-0.6,1.7-1.4,2.3-2.3c0.6-0.9,1.2-2.5,1.8-4.8
		L426.3,397.3z"/>
	<path class="st1" d="M276.3,321.2L276.3,321.2c-0.5,0.2-1.7,0.3-2.8,0.3c-3,0-5.1-1.2-5.1-3.6c0-3,2.8-3.7,7.8-3.9L276.3,321.2z
		 M271.7,294.5h-10.8v8.8H273c1.9,0.1,3.1,1.2,3.3,2.9l0,0v0.1c-10.4,0.6-19.4,2.9-19.4,11.9c0,7.6,5.6,11.8,17,11.8H288v-23.6
		C288,298.7,283.2,294.5,271.7,294.5 M-38.5,321.2L-38.5,321.2c-0.5,0.2-1.7,0.3-2.8,0.3c-3,0-5.1-1.2-5.1-3.6c0-3,2.8-3.7,7.8-3.9
		V321.2z M-43,294.5L-43,294.5c-0.5,0-10.8,0-10.8,0v8.8h12.1c1.9,0.1,3.1,1.2,3.3,2.9l0,0v0.1c-10.4,0.6-19.4,2.9-19.4,11.9
		c0,7.6,5.6,11.8,17,11.8h14.1v-23.6C-26.8,298.7-31.5,294.5-43,294.5 M147.9,330L147.9,330h12.9v-47.1h-12.9V330z M108.2,295.6
		L108.2,295.6v3h-3.7v9.3h3.7V330h12.2v-22.2h5.7v-9.3h-5.7v-3c0-2.5,1.9-3.4,4.5-3.4c0.6,0,1.2,0.1,1.8,0.1v-9.5
		c-1.1-0.2-2.9-0.3-4.2-0.3C114,282.5,108.2,286.5,108.2,295.6 M84.7,320.9L84.7,320.9c-2.8,0-4.3-2.6-4.3-8.4
		c0-5.8,1.5-8.4,4.3-8.4c2.8,0,4.3,2.6,4.3,8.4C89,318.3,87.5,320.9,84.7,320.9 M84.7,294.5L84.7,294.5c-10.6,0-16.8,7.7-16.8,18.1
		c0,10.4,6.2,18.2,16.8,18.2c10.6,0,16.8-7.8,16.8-18.2C101.5,302.2,95.3,294.5,84.7,294.5 M239.9,290L239.9,290h12.5v-7.4h-12.5
		V290z M239.9,330L239.9,330h12.5v-35.5h-12.5V330z M180.6,294.5L180.6,294.5c-0.5,0-15.1,0-15.1,0V330H178v-25.3
		c0.6-0.3,1.8-0.5,2.8-0.5c2.3,0,3.7,1.3,3.7,3.5V330h12.5v-23.6C196.9,298.7,192.1,294.5,180.6,294.5 M221.4,320.1L221.4,320.1
		c-0.4,0.2-1.3,0.3-2.1,0.3c-3.5,0-5.5-2.8-5.5-8.7c0-5,1.9-8.3,5.3-8.3c0.9,0,1.9,0.2,2.2,0.4V320.1z M221.4,294.7L221.4,294.7
		c-0.9-0.3-2.4-0.5-3.7-0.5c-10.9,0-16.4,6.9-16.4,17.6c0,11.8,6.3,18.1,18,18.2h14.6v-47.2h-12.5V294.7z M-80.8,320.4L-80.8,320.4
		c-1.1,0-2.4-0.2-3.2-0.3v-9.9h4.6c2,0,3.2,0.5,4.1,1.3c0.8,0.8,1.3,2.2,1.3,3.7C-74,319-75.9,320.4-80.8,320.4 M-83.9,292.5
		L-83.9,292.5c0.8-0.2,2-0.3,3.2-0.3c5,0,6.5,2,6.5,5.2c0,1.7-0.5,3-1.3,3.7c-0.6,0.6-2.1,1.1-3.8,1.1h-4.6V292.5z M-68.7,305
		L-68.7,305v-0.1c3.7-1.2,6.6-4.3,6.6-8.9c0-7.7-5.4-13.3-18.6-13.3c0,0-15.3,0-15.3,0v47.3h15.3c13.2,0,19.5-5.2,19.5-13.8
		C-61.2,310.4-65.2,306.4-68.7,305 M50.8,295.4L50.8,295.4H36.9l-7.6,14.4h-0.1v-27H16.8V330h12.3v-17.1h0.1L38,330h13.7l-10-18.7
		L50.8,295.4z M-5.5,294.6c-0.5,0-15.1,0-15.1,0V330h12.5v-25.3c0.6-0.3,1.8-0.5,2.8-0.5c2.3,0,3.7,1.3,3.7,3.5V330h12.5v-23.6
		C10.7,298.7,6,294.6-5.5,294.6"/>
</g>
<polygon points="369,309.2 305.9,364.9 341.2,288.7 269.3,247.1 351.5,255.9 369,124.8 386.5,255.9 468.7,247.1 396.8,288.7 
	432.1,364.9 "/>
<polygon class="st2" points="369,307.6 309.4,360.2 342.8,288.2 274.8,248.9 352.5,257.3 369,133.9 385.5,257.3 463.2,248.9 
	395.2,288.2 428.6,360.2 "/>
<polygon class="st0" points="385.5,257.3 352.5,257.3 342.8,288.2 369,307.6 395.2,288.2 "/>
<g>
	<path d="M369,301c-11.7,0-21.2-9.5-21.2-21.2c0-11.7,9.5-21.3,21.2-21.3c11.7,0,21.2,9.5,21.2,21.3C390.2,291.4,380.7,301,369,301"
		/>
	<path class="st1" d="M369,299.8c-11.1,0-20-9-20-20s9-20,20-20c11.1,0,20,9,20,20S380,299.8,369,299.8"/>
	<path d="M369.5,267.2C369.4,267.2,369.4,267.2,369.5,267.2c-0.1,0-0.2,0-0.2,0c-0.1,0-0.1,0-0.2,0c-0.1-0.1-0.3,0-0.4,0
		c-0.1,0-0.1-0.1-0.1-0.1c0,0,0,0.1,0,0.1c0.1,0,0.1,0,0.2,0c0.1,0.1,0.1,0.2,0.2,0.3c0.1,0,0.3,0,0.3,0c0.1,0,0.1-0.1,0.1-0.2
		c0,0,0.1,0,0.2,0C369.6,267.3,369.5,267.2,369.5,267.2 M368.9,267.5L368.9,267.5c0-0.1,0.1,0,0.1,0
		C369.1,267.5,368.9,267.5,368.9,267.5 M369,274.5c-0.2,0-0.4,0.1-0.5,0.3c-0.1,0.1-0.1,0.3,0,0.4c0.1,0.1,0.3,0.3,0.5,0.3
		c0.2,0,0.4-0.2,0.5-0.3C369.7,274.8,369.4,274.5,369,274.5 M369.1,275.3c-0.1,0.1-0.1,0.1-0.2,0c-0.1-0.1-0.1-0.2-0.1-0.4
		c0-0.2,0.2-0.3,0.3-0.4c0,0,0,0,0,0C369.3,274.7,369.3,275.1,369.1,275.3 M376,282.5c-0.1,0-0.1-0.2-0.1-0.2
		c-0.1,0.2-0.1,0.2-0.2,0.2c-0.1,0-0.1,0-0.2,0c0,0.2,0.4,0.2,0.4,0c0.1,0.1,0.3,0.2,0.4,0C376.2,282.6,376.1,282.5,376,282.5
		 M377.3,282.5c-0.1,0-0.3-0.1-0.5-0.1c-0.1,0-0.2,0.1-0.3,0.2c-0.1,0.1-0.2,0.3-0.1,0.5c0,0,0,0.1,0.1,0.1c0,0,0-0.1,0.1-0.1
		c0.3,0,0.5,0,0.7-0.1c0.1-0.1,0.1-0.2,0.2-0.3c0-0.1,0.1-0.2,0.1-0.3c0,0,0,0,0,0C377.4,282.5,377.3,282.5,377.3,282.5 M376.7,283
		C376.6,283,376.6,283,376.7,283C376.6,282.9,376.6,282.9,376.7,283c0-0.2,0-0.2,0.1-0.2c0.1,0,0.1,0.2,0,0.2c0.1,0,0.2-0.1,0.2-0.2
		c0.1,0,0.1,0,0.1,0.1C377.1,283,376.9,283.1,376.7,283 M375.1,282.6c-0.2-0.1-0.5,0-0.7,0c0,0-0.1-0.1-0.1-0.1
		c0,0.2,0.1,0.3,0.3,0.3c0.1,0.3,0.4,0.4,0.8,0.3c0,0,0,0.1,0.1,0.1c0,0,0.1-0.1,0.1-0.1c0-0.1-0.1-0.2-0.1-0.3
		C375.4,282.8,375.2,282.6,375.1,282.6 M374.8,282.8c0.1-0.1,0.3,0.1,0.2,0.1c0,0-0.1,0-0.1,0c0,0.2,0.2,0.1,0.3,0.1
		c0,0,0.1,0,0.1,0.1C375.1,283.1,374.7,283,374.8,282.8 M375.6,285.7c0,0.1,0.1,0.2,0.2,0.2c0.1,0,0.2-0.1,0.2-0.2
		C375.9,285.6,375.7,285.6,375.6,285.7 M372.9,290.3c0.1-0.1,0.3-0.1,0.4-0.2c-0.2-0.2-0.7-0.2-0.7,0.2
		C372.6,290.5,372.9,290.5,372.9,290.3 M374.1,293.6c-0.1,0-0.2,0.1-0.3,0.1c-0.1,0-0.1-0.1-0.2-0.1c-0.1,0-0.3-0.1-0.4-0.1
		c-0.2,0-0.7,0.1-0.4,0.3c0.1,0.1,0.3,0.1,0.4,0.1c-0.1,0.1,0,0.2,0,0.2c0.2,0.1,0.6,0.1,0.9,0.2c0.2,0,0.4,0,0.7,0
		c0.1,0,0.2,0.1,0.3,0.1c0.3,0,0.4,0,0.6-0.1c0.1-0.1,0.2-0.1,0.1-0.3c-0.2-0.1-0.5-0.2-0.8-0.2
		C374.9,293.5,374.4,293.5,374.1,293.6 M383.1,290.8c-0.1,0-0.2,0-0.3-0.1c-0.2,0-0.4,0-0.6,0c-0.2,0-0.3,0-0.5-0.1
		c-0.2,0-0.4-0.1-0.5-0.1c-0.1,0-0.3-0.2-0.4-0.2c-0.5-0.3-1-0.5-1.5-0.7c0.1-0.2,0.2-0.3,0.3-0.5c0.1-0.2,0.1-0.5,0.2-0.8
		c0-0.2,0.1-0.4,0.1-0.5c0-0.4,0-0.7,0-1.1c-0.1-1.1,0-2.1,0-3c0-0.4-0.1-0.8-0.2-1.2c-0.1-0.4-0.2-0.8-0.4-1.1
		c0-0.1-0.1-0.3-0.2-0.4c-0.1-0.1-0.2-0.2-0.3-0.2c0,0,0-0.1,0-0.1c0-0.1-0.2-0.2-0.3-0.3c-0.1-0.1-0.1-0.1-0.2-0.2
		c-0.1,0-0.2-0.1-0.3-0.1c-0.1,0-0.1,0-0.2-0.1c-0.1,0-0.1-0.1-0.1-0.1c-0.2-0.1-0.4-0.1-0.7-0.1c0,0-0.1,0-0.1-0.1
		c-0.4-0.1-0.9,0-1.3-0.1c-0.4-0.1-0.8-0.3-1.1-0.5c0-0.2-0.1-0.3-0.3-0.3c0-0.1,0.1-0.3-0.1-0.4c0,0-0.1,0-0.1,0
		c-0.2-0.7-0.3-1.4-0.5-2c-0.1-0.3-0.2-0.7-0.3-1c0-0.2-0.1-0.4-0.1-0.6c0-0.2-0.1-0.4-0.1-0.5c0-0.3,0-0.5-0.1-0.8
		c0.1-0.1,0.3-0.3,0.3-0.5c0,0,0-0.1,0-0.1c0-0.1-0.1-0.2-0.2-0.4c-0.2-0.4-0.2-0.9-0.3-1.3c-0.1-0.5-0.2-0.9-0.3-1.3
		c-0.1-0.1-0.1-0.3-0.2-0.4c0,0,0,0,0,0c-0.1-0.3-0.2-0.4-0.4-0.5c0-0.1-0.1-0.2-0.1-0.3c0-0.1-0.1-0.2-0.1-0.3c0-0.2,0-0.3,0-0.4
		c0-0.1-0.1-0.1-0.1-0.1c0-0.1,0-0.1,0-0.2c0-0.1-0.1-0.1-0.1-0.2c0.1-0.2,0-0.4-0.1-0.5c0.1-0.1,0-0.3-0.1-0.4
		c0.1-0.1,0-0.3-0.1-0.4c0.1-0.2,0-0.3-0.1-0.4c0.1-0.2,0-0.4-0.1-0.5c0,0,0-0.1,0-0.1c0-0.1-0.1-0.1-0.1-0.2c0-0.1,0-0.1,0-0.2
		c0-0.1,0-0.1-0.1-0.2c0-0.4-0.1-0.6-0.4-0.9c-0.4-0.4-0.9-0.5-1.3-0.5h0c-0.5-0.1-0.9,0.2-1.3,0.4c-0.3,0.2-0.4,0.4-0.5,0.7
		c0,0,0,0.1,0,0.1c-0.1,0.2-0.2,0.4-0.2,0.7c-0.1,0.2-0.1,0.3-0.1,0.4c0,0.1,0,0.2,0,0.2c0,0,0,0.1,0,0.1c0,0,0,0.1,0,0.1
		c-0.1,0.1-0.1,0.3-0.1,0.4c-0.1,0.1-0.1,0.3,0,0.4c-0.1,0.1-0.1,0.4,0,0.5c0,0.1-0.1,0.1-0.1,0.2c0,0.1,0.1,0.1,0.1,0.2
		c0,0.1-0.1,0.1-0.1,0.2c0,0.1,0,0.2,0,0.3c-0.1,0.1-0.2,0.3-0.1,0.4c0,0.1-0.1,0.1-0.1,0.1c0,0,0,0.1,0,0.1c0,0.1-0.1,0.2-0.2,0.2
		c0,0.1-0.1,0.2-0.1,0.3c-0.1,0.2-0.3,0.5-0.4,0.8c-0.2,1-0.5,2.2-0.7,3.2c0,0.2-0.1,0.4-0.2,0.6c-0.5-0.2-1.2-0.3-1.8-0.4
		c0-0.1,0-0.2-0.1-0.3c-0.1-0.1-0.2,0-0.4,0.1c0-0.1-0.3-0.2-0.4-0.1c-0.1,0-0.1-0.1-0.2-0.1c-0.1-0.3-0.2-0.5-0.4-0.7
		c-0.1-0.1-0.2-0.1-0.3-0.2c-0.2-0.1-0.3-0.2-0.5-0.3c-0.1,0-0.4-0.2-0.4-0.3c0,0,0-0.1,0-0.1c-0.2-0.7-0.3-1.3-0.5-2
		c0-0.1-0.1-0.2-0.1-0.3c0,0,0.1-0.1,0.1-0.1c0-0.1,0-0.2-0.1-0.3c-0.1-0.3-0.2-0.5-0.2-0.8c0.3-0.1,0.5-0.2,0.7-0.3
		c0.1-0.2,0.2-0.3,0.2-0.6c-0.1-0.7-0.6-1.3-0.7-2.1c0-0.2,0-0.3,0-0.5c-0.1,0-0.1,0.1-0.2,0.2c-0.2,0.6,0.1,1.2,0.2,1.7
		c0,0.2,0,0.5-0.2,0.7c-0.1,0.1-0.2,0.2-0.3,0.2c-0.1-0.2-0.1-0.6-0.1-0.8c-0.1-0.1,0.1-0.3,0-0.4c0,0-0.1-0.1-0.2-0.2
		c-0.1-0.1-0.1-0.1-0.1-0.2c-0.2-0.3-0.4-0.7-0.5-1c-0.1-0.1-0.1-0.3-0.2-0.3c-0.1,0.1,0,0.2,0,0.2c0,0.3,0.1,0.5,0.1,0.8
		c0,0.2,0,0.6,0,0.8c0,0.1-0.1,0.1-0.1,0.2c0,0,0.1,0.1,0.1,0.1c0,0.1,0.1,0.1,0.1,0.2c0.2,0.2,0.3,0.5,0.4,0.8
		c-0.1,0-0.1,0.1-0.1,0.2c-0.4,0.2-0.7-0.1-0.7-0.5c0-0.3,0-0.7,0-1c-0.1-0.4-0.2-0.7-0.4-0.9c-0.1-0.1-0.1-0.2-0.3-0.1
		c0,0.1,0.1,0.2,0.1,0.3c0.2,0.6,0.1,1.6,0.1,2.3c0,0.3,0.2,0.5,0.4,0.7c0.3,0.2,0.6,0.1,1,0c0.1,0.3,0.2,0.6,0.2,0.9
		c0,0.1,0,0.1,0,0.2c0,0,0.1,0.1,0.1,0.1c0.1,0.1,0.1,0.2,0.1,0.3c0.2,0.8,0.4,1.6,0.6,2.4c0,0.1-0.1,0.1-0.1,0.1c0,0.1,0,0.2,0,0.4
		c0,0.1,0,0.1,0,0.2c0,0.1,0.1,0.1,0.1,0.2c0,0.1,0,0.3,0.1,0.4c0,0.1,0.1,0.3,0.2,0.4c0.1,0.1,0.2,0.1,0.2,0.2
		c0,0.1,0.1,0.3,0.1,0.4c0,0.1,0.1,0.3,0.1,0.4c0.2,0.8,0.4,1.6,0.6,2.4c0.7,2.6,1.3,5.3,1.9,7.9c0.1,0.5,0.3,1.1,0.4,1.6
		c-0.1,0-0.2,0.1-0.3,0.1c-0.2,0.1-0.4,0.1-0.5,0.2c-0.3,0.1-0.6,0.3-0.8,0.4c0,0-0.1,0-0.1,0.1c-0.7,0.5-1.2,1.3-1.6,2
		c-0.1,0.1-0.1,0.2-0.2,0.3c0,0.1,0,0.1-0.1,0.2c0,0.1-0.1,0.1-0.1,0.2c-0.1,0.3-0.2,0.6-0.3,1c-0.1,0.5,0,0.9,0.1,1.3
		c-0.2,0-0.6,0.1-0.7,0.3c0,0.1,0.1,0.2,0.2,0.3c-0.1,0-0.2,0.1-0.3,0c-0.2,0-0.6-0.1-0.8,0c-0.1,0-0.2,0.1-0.2,0.2
		c0,0.2,0.4,0.2,0.6,0.2c0.1,0,0.1,0,0.2,0c0.2,0,0.3,0,0.5,0c0.1,0,0.1,0,0.1,0.1c0,0,0.1,0,0.1,0c0,0,0.1,0,0.1,0
		c0.2,0,0.4,0,0.5,0c0,0.1-0.1,0.1-0.1,0.1c0,0.1,0,0.1,0,0.2c0.1,0.1,0.2,0.2,0.4,0.3c0.3,0.1,0.6-0.1,1-0.1c0.3,0,0.5,0.2,0.8,0.1
		c-0.1,0.1-0.2,0.4-0.1,0.5c0.1,0.1,0.1,0.1,0.2,0.1c0.3,0,0.5,0,0.8,0c0.2,0,0.5-0.1,0.7,0c0.1,0,0.1,0.1,0.1,0.2
		c0,0,0.1,0.1,0.1,0.1c0,0,0.1,0.1,0.1,0.1c0.1,0.1,0.4,0.1,0.5,0.2c0,0,0,0,0,0.1c0,0.3,0,0.6,0.2,0.8c0.1,0.1,0.2,0.1,0.2,0.2
		c0.2,0.1,0.3,0.2,0.5,0.3c0.1,0.1,0.2,0.1,0.4,0.2c0.1,0.1,0.2,0.2,0.3,0.3c0,0,0,0,0,0c0,0,0,0,0,0c-0.1,0-0.1-0.1-0.1-0.2
		c0-0.2,0.1-0.3,0.1-0.4c0.2-1-0.3-1.7-0.8-2.1c-0.1-0.1-0.1-0.1-0.2-0.2c0.2,0,0.4-0.2,0.6-0.3c0.1,0.3,0.1,0.7,0.2,1.1
		c0,0.1,0,0.3,0.1,0.3c0.1,0,0.3,0,0.3-0.1c0.1-0.1,0-0.4-0.1-0.5c-0.1-0.3-0.1-0.5-0.2-0.7c0-0.1-0.1-0.3-0.1-0.4
		c0-0.1,0.4-0.1,0.6-0.1c0.1,0,0.3,0,0.4,0c0.2,0,0.3-0.1,0.5-0.1c0.1,0.1,0.1,0.2,0.2,0.2c0.3,0.1,0.6,0.1,0.9,0
		c0.1,0,0.3-0.1,0.4-0.1c0.2-0.1,0.4-0.1,0.5-0.1c0.1,0,0.4-0.1,0.4-0.2c0-0.1-0.1-0.1-0.1-0.1c0.1,0,0.2-0.1,0.4-0.1
		c0.2,0,0.4,0.1,0.5,0.1c0.1,0,0.2,0,0.3,0c0.2,0,0.4,0.1,0.6,0.1c0.1,0,0.2-0.1,0.3-0.1c0.1,0,0.3,0,0.4,0.1c0.2,0,0.4,0,0.6,0
		c0.3,0,0.5-0.1,0.8-0.2c0,0,0.1-0.1,0.2-0.1c0.1,0,0.2,0,0.3,0.1c0.1,0,0.2,0,0.3,0c0.1,0,0.3,0,0.3-0.1c0-0.1-0.1-0.2-0.1-0.2
		c-0.3-0.2-0.8-0.2-1.1-0.1c-0.1,0-0.2,0.1-0.3,0c0-0.1,0.1-0.1,0.2-0.1c0.1,0,0.1-0.1,0.1-0.1c0.3,0.1,0.6,0.1,0.9,0
		c0.1,0.1,0.4,0.1,0.6,0.2c0,0,0,0.1,0,0.1c0.1,0.1,0.4,0.1,0.6,0.1c0.6,0,1.2,0.1,1.8,0.2c0.2,0.2,0.7,0.1,1,0.3
		c-0.1,0-0.1,0.1-0.2,0.1c-0.4-0.1-0.9-0.1-1.3,0.1c-0.1,0-0.2,0.2-0.1,0.3c0.1,0.1,0.4,0.2,0.7,0.2c0.3,0,0.5,0.1,0.8,0
		c0.1,0,0.3-0.1,0.3-0.1c0.1,0,0.1-0.1,0.1-0.2c0.2,0,0.9,0,1-0.2c0-0.1-0.1-0.1-0.1-0.1c0.1,0,0.1-0.1,0.3-0.2c0.1,0,0.1,0,0.2,0
		c0.1,0,0.2,0,0.2-0.1c0.1-0.1,0.1-0.1,0.2-0.2c0.2,0,0.3,0,0.4,0c0.1,0,0.3-0.2,0.4-0.3c0.2,0,0.3,0,0.5,0.1c0.2,0,0.3,0.1,0.5,0.1
		c0.2,0,0.4,0,0.5-0.1c0.1,0,0.2-0.1,0.3-0.1c0.2-0.1,0.4,0,0.5-0.2c0,0,0-0.1,0-0.1c0.3-0.1,0.4-0.3,0.4-0.8
		C383.8,291.1,383.5,290.9,383.1,290.8 M358.4,268.1c-0.2,0-0.4,0-0.5,0c-0.1,0-0.2-0.1-0.3-0.2c-0.2-0.3-0.1-0.9-0.1-1.4
		c0.1,0.2,0,0.5,0.1,0.8c0,0.2,0,0.3,0.1,0.5c0.1,0.1,0.3,0.3,0.4,0.3C358.2,268,358.3,268,358.4,268.1c0-0.1,0.1-0.1,0.1-0.1
		C358.5,268.1,358.4,268.1,358.4,268.1 M358.6,267.1c-0.1-0.2-0.3-0.5-0.4-0.7c0.1-0.2,0.1-0.5,0.1-0.8c0,0,0,0.1,0,0.1
		c0.1,0.2,0.2,0.5,0,0.5c0.1,0.3,0.2,0.6,0.3,1C358.6,267.2,358.6,267.1,358.6,267.1 M358.6,267.6c0-0.1,0.1-0.1,0.2-0.1
		C358.8,267.5,358.7,267.5,358.6,267.6c0.1,0.1,0.1,0.4,0.3,0.5c-0.1,0-0.1,0-0.1,0.1C358.7,268,358.6,267.7,358.6,267.6 M359,269
		c-0.1-0.3-0.1-0.6-0.1-0.8c0,0.1,0.1,0.3,0.1,0.5c0,0.2,0.1,0.4,0.1,0.5C359,269.2,359,269.1,359,269 M359.2,267.5
		c0.1-0.1,0.2-0.1,0.3-0.2C359.5,267.5,359.4,267.5,359.2,267.5C359.2,267.6,359.2,267.6,359.2,267.5 M379.5,288.8
		c0,0.1-0.1,0.1-0.1,0.2c-0.1,0.2-0.2,0.3-0.3,0.5c-0.2,0.3-0.6,0.4-0.9,0.7c-0.1,0.1-0.2,0.2-0.3,0.3c-0.1,0.1-0.2,0.2-0.3,0.2
		c0,0-0.1,0-0.2,0c0-0.1,0.1-0.1,0.1-0.1c0-0.1,0.1-0.1,0.2-0.1c0,0,0-0.1,0-0.1c0.1-0.2,0.3-0.3,0.4-0.5c0-0.1,0.1-0.2,0.1-0.3
		c0,0,0-0.1,0-0.2c0.1-0.1,0.2-0.1,0.3-0.2c0-0.1,0.1-0.2,0.2-0.2c0-0.1,0.1-0.3,0.1-0.3c0.1-0.4-0.1-0.7,0-1.1
		c-0.1,0.2-0.1,0.5-0.1,0.8c0,0.3-0.2,0.6-0.4,0.7c0-0.1,0-0.2,0-0.3c0-0.1,0.1-0.2,0.2-0.3c0.1-0.2,0-0.5,0.1-0.7
		c0-0.1,0.1-0.2,0.1-0.3c0-0.1,0-0.2,0-0.3c0-0.1-0.1-0.2-0.1-0.2c0-0.1,0.1-0.2,0.1-0.3c0-0.1-0.1-0.2-0.1-0.3c0-0.1,0-0.3,0.1-0.4
		c0,0,0.1,0,0.1,0c0,0,0.1-0.1,0.1-0.1c0.1,0.1,0.2,0.5,0.2,0.6c0,0.2,0,0.5,0,0.7c0,0.2,0,0.4,0,0.5c0,0.3,0.2,0.6,0.2,0.9
		C379.5,288.4,379.6,288.6,379.5,288.8 M376.5,288.1c0,0,0-0.1,0-0.2c0-0.1-0.1-0.2-0.1-0.3c0-0.1,0.1-0.2,0.1-0.4
		c0-0.1-0.1-0.2-0.1-0.4c0-0.1,0-0.2,0-0.3c0,0-0.1-0.4-0.1-0.4c-0.1,0-0.1,0.2-0.1,0.3c0,0,0,0.2,0,0.2c0,0.1,0.1,0.2,0.1,0.3
		c0.1,0.2-0.1,0.4-0.1,0.6c0,0.1,0.1,0.2,0.1,0.3c0,0.1-0.1,0.3-0.1,0.4c0,0.1,0.1,0.2,0.2,0.4c0.1,0.5-0.2,0.8-0.3,1.1
		c-0.1,0.1-0.2,0.1-0.3,0.2c-0.1,0.1-0.1,0.4-0.4,0.3c0-0.1,0.2-0.1,0.2-0.2c0.1-0.1,0.3-0.2,0.4-0.4c0.1-0.3,0-0.6,0-1
		c0-0.2,0.1-0.3,0.1-0.4c0-0.1,0.1-0.3,0.1-0.5c0-0.3-0.1-0.6-0.1-0.8c0-0.1,0.1-0.2,0.2-0.3c0-0.1,0-0.1-0.1-0.2
		c-0.1,0-0.3,0-0.4,0c0,0.1,0,0.1,0,0.2c0,0.1,0.1,0.1,0.1,0.2c0,0.1,0.1,0.2,0.1,0.4c0,0.1,0.1,0.2,0.1,0.4c0,0.3-0.2,0.7-0.2,1
		c-0.1,0-0.1-0.1-0.1-0.2c0-0.1,0-0.1,0-0.2c0-0.1,0.1-0.2,0.1-0.3c0-0.1,0-0.2,0-0.3c0-0.1,0.1-0.2,0.1-0.3c0-0.1-0.1-0.1-0.1-0.2
		c0-0.2-0.1-0.4-0.1-0.6c0,0,0,0,0-0.1c-0.1-0.1-0.3,0-0.4-0.1c-0.1-0.1-0.1-0.3-0.2-0.5c0.1-0.1,0.2,0,0.3-0.1
		c0.1,0,0.2-0.1,0.3-0.1c0.1,0,0.2,0,0.3,0c0.1,0,0.1-0.1,0.2-0.1c0.1,0,0.2,0.1,0.3,0.1c0,0,0.1,0,0.1,0c0.1,0,0.2,0.1,0.3,0.2
		c0.3-0.1,0.4-0.3,0.5-0.6c0,0.3-0.2,0.5-0.2,0.9c0,0.3,0.3,0.5,0.3,0.8c0,0.1,0,0.2,0,0.3c0.1,0.5-0.2,0.7-0.3,1
		c-0.1-0.1-0.2-0.2-0.2-0.3c0-0.2,0.2-0.4,0.2-0.5c0-0.3-0.1-0.6-0.2-0.8c0-0.1-0.1-0.2-0.1-0.3c0,0-0.1-0.1-0.1-0.1
		c0-0.1,0-0.2-0.1-0.2c-0.1,0-0.1,0.1-0.1,0.2c0,0.2,0.2,0.4,0.3,0.6c0,0.1,0,0.2,0.1,0.3c0,0.1,0.1,0.2,0.1,0.4
		c0,0.2-0.2,0.3-0.3,0.5c0,0.1,0,0.3,0.1,0.4c0,0.1,0.1,0.1,0.2,0.2c0,0.1,0.1,0.2,0.1,0.4c0,0.1,0.1,0.3,0.1,0.4c0,0.1,0,0.3,0,0.4
		c0,0.1-0.1,0.2-0.2,0.4c-0.1,0.1-0.1,0.2-0.3,0.2c-0.1,0.1-0.2,0.1-0.4,0.1c-0.1,0-0.1,0-0.2,0.1c-0.1,0-0.2-0.1-0.3-0.1
		c0-0.4,0.3-0.4,0.5-0.6c0.2-0.2,0.3-0.5,0.3-0.9C376.6,288.5,376.5,288.3,376.5,288.1 M374,288.8c0,0,0,0.1,0,0.2
		c-0.1,0-0.1-0.1-0.1-0.2c-0.1-0.2-0.1-0.4-0.1-0.7c0.1-0.3,0.2-0.6,0.1-0.9c0-0.1-0.2-0.3-0.2-0.4c-0.1-0.2-0.2-0.4-0.2-0.7
		c0-0.2,0.1-0.5,0.1-0.8c0-0.3,0-0.6,0.1-0.8c0-0.1,0.1-0.3,0.2-0.4c0.1,0,0.1,0.1,0.1,0.2c0.1,0.2,0.1,0.5,0.1,0.8
		c0,0.2-0.1,0.3-0.2,0.5c-0.1,0.3-0.1,0.6-0.1,0.9c0,0.1,0.1,0.2,0.1,0.4c0.1,0.3,0.3,0.5,0.3,0.8c0,0.1,0,0.3,0,0.4
		c0,0.3-0.2,0.4-0.1,0.7c0,0.1,0.1,0.3,0.2,0.4c0.1,0.3,0.2,0.8,0,1.1c-0.1,0-0.2-0.2-0.3-0.3C374.3,289.5,374.2,289,374,288.8
		 M372,285.3C372,285.3,372,285.3,372,285.3L372,285.3c0.2,0.4,0.1,1.1,0.4,1.5c0.2,0.3,0.4,0.4,0.8,0.5c0.1,0.1,0,0.3,0.1,0.4
		c0,0.1,0.1,0.2,0.1,0.3c0,0.1,0,0.2,0,0.4c-0.1-0.1-0.1-0.2-0.1-0.3c0-0.1-0.1-0.2-0.2-0.3c-0.2-0.2-0.5-0.3-0.7-0.5
		c-0.2-0.2-0.4-0.6-0.4-1C371.8,285.9,372,285.6,372,285.3 M371.7,285.8c-0.1,0,0-0.1,0-0.1c0-0.1,0.1-0.3,0.1-0.5
		c0-0.1,0-0.2,0.1-0.3c0,0,0,0,0,0c-0.1,0.2-0.1,0.4-0.1,0.6C371.8,285.6,371.8,285.7,371.7,285.8 M371,274.5c0,0,0-0.1-0.1-0.1
		c0.1-0.1,0.2-0.3,0.4-0.3c0,0,0,0,0,0c0,0.4,0.1,0.5,0.1,0.5c0,0.1,0,0.2,0.1,0.4c0,0.2,0.1,0.5,0.1,0.7c0.1,0.2,0.2,0.8,0.3,1.1
		c0.3,0.7,0.6,1.4,0.9,2c0,0.1-0.1,0.2-0.1,0.3c0,0.1,0.1,0.1,0.1,0.1c0,0.1-0.1,0.1-0.1,0.2c0,0.2,0.3,0.3,0.5,0.3
		c0.1,0.1,0.1,0.2,0.1,0.3c0,0.1,0.1,0.2,0.1,0.3c0,0.1-0.1,0.1-0.2,0.2c-0.1,0.1-0.2,0.2-0.3,0.4c-0.2,0.3-0.5,0.7-0.6,1.1
		c0,0.1-0.1,0.2-0.1,0.2c0-2.6-0.2-5.2-1.2-6.8c0-0.1,0-0.1,0-0.2h0v-0.3C371.1,274.7,371.1,274.5,371,274.5 M371.7,273.9
		c0-0.1,0.1-0.1,0.2-0.1c0.2-0.1,0.5-0.1,0.8-0.2c0,0,0,0.1,0,0.1v0c-0.2,0.1-0.3,0.1-0.5,0.1C372,273.9,371.9,273.9,371.7,273.9
		C371.7,273.9,371.7,273.9,371.7,273.9 M376,280.8c0.1,0,0.2-0.2,0.4-0.2c0.1,0.1-0.1,0.2-0.2,0.3c-0.1,0.1-0.2,0.1-0.4,0.1
		c-0.1,0-0.3-0.1-0.4-0.1c-0.3-0.1-0.7,0-1,0.1c-0.3,0.1-0.4,0.3-0.6,0.4c0.1-0.5,0.4-0.7,0.9-0.8c0.1,0,0.3,0,0.5,0
		C375.4,280.7,375.8,280.8,376,280.8 M375.8,280.6c0-0.1,0.1-0.1,0.1-0.1C376.2,280.5,375.9,280.7,375.8,280.6 M378.2,281.2
		c0,0.1-0.1,0.1,0,0.2c0,0,0.1,0.1,0.1,0.1c0,0-0.2,0.2-0.3,0.2c-0.2,0.1-0.5,0-0.6-0.1C377.8,281.5,378,281.4,378.2,281.2
		 M378.3,281.2C378.3,281.2,378.4,281.1,378.3,281.2c0.2-0.2,0.4-0.1,0.4,0c0.1,0.4-0.2,0.8-0.5,0.9c-0.1,0-0.3,0-0.3-0.1
		c0,0,0.1,0,0.1,0c0.2,0,0.4-0.2,0.6-0.3C378.6,281.4,378.5,281.2,378.3,281.2 M379,285c0,0.1,0,0.3-0.1,0.4
		c-0.1,0.2-0.3,0.2-0.3,0.4c-0.1,0.2,0.1,0.5,0.1,0.7c-0.1,0-0.1-0.1-0.1-0.1c0-0.1-0.1-0.1-0.1-0.2c-0.1-0.3,0.1-0.8,0-1.1
		c0-0.1-0.1-0.2-0.1-0.2c0-0.2,0.1-0.3,0.1-0.5c0-0.1-0.1-0.2-0.2-0.3c-0.1-0.1-0.1-0.1-0.1-0.2c0-0.2,0.1-0.3,0.2-0.5
		c0.1-0.3,0-0.6-0.1-0.8c0,0,0,0,0,0c0.1,0.1,0.3,0.3,0.3,0.5c0.1,0.2,0.2,0.4,0.2,0.6c0,0.3-0.1,0.6-0.1,0.9
		C378.8,284.6,379,284.7,379,285 M377.8,282.1C377.8,282.1,377.8,282.1,377.8,282.1C377.8,282.1,377.8,282.1,377.8,282.1
		c0.3,0.1,0.3,0.4,0.4,0.7c0,0.2-0.1,0.5-0.1,0.7c0,0.2,0,0.4,0.1,0.5c0.1,0.1,0.2,0.1,0.2,0.3c0,0.1-0.1,0.2-0.1,0.3
		c-0.1-0.1-0.1-0.2-0.1-0.4c0-0.1-0.1-0.3-0.1-0.4s0-0.2,0-0.4C378.1,283,377.9,282.5,377.8,282.1 M377.6,286.4
		c0,0.1,0.1,0.1,0.1,0.2c0.1,0.1,0.1,0.6-0.1,0.6c0-0.5-0.5-0.8-0.4-1.4c0-0.1,0.1-0.3,0.1-0.4c0.1-0.3,0.2-0.6,0.1-0.9
		c0,0,0-0.1,0-0.1c0,0,0.2-0.3,0.2-0.4c0.1,0,0.1,0.2,0.1,0.2c0.1,0.2,0.2,0.4,0.2,0.7c0,0.2-0.1,0.5-0.2,0.7
		c-0.1,0.2-0.3,0.3-0.3,0.6C377.5,286.3,377.6,286.4,377.6,286.4 M377.8,282.6c0.1,0.5,0,0.9-0.2,1.3c-0.1,0.2-0.3,0.4-0.4,0.6
		c0,0.1,0.1,0.2,0,0.3c-0.2,0-0.3-0.1-0.5-0.2c0,0.2,0.3,0.3,0.4,0.3c0,0.1-0.1,0.2-0.1,0.2c-0.1,0-0.3-0.1-0.3-0.2
		c0,0,0-0.1-0.1-0.1c0,0.2,0.2,0.3,0.3,0.4c0,0.1-0.1,0.2-0.2,0.2c-0.2,0-0.3-0.3-0.3-0.5c-0.1,0-0.1,0.2-0.1,0.3
		c-0.3-0.1-0.4-0.4-0.4-0.7c0.1-0.3,0.6-0.2,0.6-0.5c0-0.1,0-0.2,0-0.3c0-0.1,0-0.1-0.1-0.2c0,0.1,0.1,0.2,0,0.3c-0.1,0-0.1,0-0.1,0
		c-0.2,0-0.4,0.1-0.5,0.1c-0.1,0-0.2,0-0.3,0c-0.1,0-0.1,0-0.2,0c0-0.1,0.1-0.2,0-0.3c-0.1,0.1-0.1,0.2-0.1,0.3
		c0,0.1,0.1,0.2,0.2,0.3c0.2,0.1,0.4,0.1,0.5,0.2c0,0.1,0,0.2,0,0.3c0,0.3-0.3,0.5-0.5,0.5c0-0.1,0.1-0.3,0-0.3
		c-0.1,0-0.1,0.2-0.2,0.3c-0.1,0.1-0.3,0.3-0.4,0c0.1-0.1,0.3-0.2,0.4-0.4c-0.1,0-0.2,0-0.3,0.1c-0.1,0.1-0.2,0.1-0.2-0.1
		c0.2,0,0.4-0.1,0.5-0.3c-0.1,0-0.3,0.1-0.5,0.1c0,0,0-0.1,0-0.1c-0.3-0.4-0.5-0.9-0.6-1.5c0-0.4,0.1-0.8,0.2-1.1
		c0.1-0.1,0.1-0.2,0.2-0.3c0.1-0.1,0.1-0.2,0.3-0.3c0.2-0.1,0.4-0.1,0.6-0.1c0.2,0,0.4,0.1,0.6,0.2c0.3,0.1,0.4-0.1,0.6-0.1
		c0.3,0,0.5,0.1,0.7,0.2c0.1,0,0.1,0.1,0.2,0.2C377.6,282,377.7,282.3,377.8,282.6 M373.7,283.3c0,0.2,0,0.4,0,0.6
		c0,0.2-0.2,0.3-0.2,0.5c0,0,0,0.1,0,0.1c0,0,0,0.1,0,0.1c0,0.2,0,0.3,0,0.5c-0.2-0.3-0.2-0.7-0.1-1c0.1-0.2,0.2-0.4,0.2-0.7
		c0-0.4,0-0.9,0.1-1.3c0.1-0.2,0.2-0.4,0.3-0.6c0.1,0,0.1-0.1,0.2-0.1c0,0,0,0,0,0c0.3-0.2,0.7-0.4,1.2-0.3c-0.1,0-0.3,0-0.5,0
		c-0.4,0.2-0.8,0.4-1,0.8c0,0,0,0,0,0c0,0.1-0.1,0.3-0.1,0.5C373.6,282.8,373.7,283,373.7,283.3 M372.6,283.5L372.6,283.5
		c0.2-0.3,0.4-0.5,0.5-0.9c0,0,0,0,0.1,0c0,0.6-0.5,0.9-0.6,1.5c-0.1-0.1-0.1-0.4,0-0.5c0,0,0,0,0,0
		C372.7,283.6,372.6,283.5,372.6,283.5C372.7,283.5,372.6,283.5,372.6,283.5 M373.2,281.9c0.1,0,0.1-0.1,0.3-0.1
		c-0.1,0.2-0.1,0.5-0.1,0.8c0,0-0.1,0-0.1-0.1C373.1,282.3,373.1,282,373.2,281.9 M373,283.8c0-0.1,0.1-0.2,0.2-0.4
		c0.1-0.2,0.2-0.5,0.2-0.8v0c0,0,0,0,0,0c0.2,0.7-0.2,1.3-0.2,1.9c0,0.2,0.1,0.4,0.1,0.6c0.1,0.1,0.1,0.3,0.1,0.5
		c-0.1-0.1-0.2-0.3-0.3-0.4c0-0.1-0.1-0.2-0.1-0.2C372.8,284.6,372.8,284.1,373,283.8 M374,281.9C374,281.9,374,281.9,374,281.9
		C374.1,281.8,374.1,281.8,374,281.9c-0.1,0.1-0.1,0.4-0.2,0.7c0,0,0-0.1,0-0.2C373.8,282.3,373.9,282,374,281.9 M373.7,280.7
		c0,0.1-0.1,0.2-0.1,0.3c-0.1,0.1-0.1,0.2-0.2,0.3c-0.3,0-0.4,0.2-0.5,0.4c0,0.1,0,0.2,0,0.4c0,0.1,0,0.1,0,0.2
		c0,0.1-0.1,0.4-0.1,0.5c-0.1,0.2-0.2,0.3-0.3,0.5c0,0-0.1,0.1-0.1,0.2c-0.1,0.2,0,0.6,0.1,0.7c0,0.1,0.1,0.1,0.1,0.2
		c0,0.1,0,0.1,0,0.2c0,0.1,0,0.2,0,0.2c0,0.2-0.1,0.4-0.1,0.5c0,0.1,0,0.2,0,0.3c0,0.4,0.2,0.8,0.3,1c0,0.1,0.1,0.1,0.1,0.2
		c-0.2-0.1-0.4-0.2-0.5-0.4c-0.1-0.2-0.1-0.5-0.1-0.8c0-0.3-0.2-0.5-0.2-0.8c0-0.2,0-0.3-0.1-0.5c0-0.2,0-0.3,0-0.5
		c0.1-0.4,0.1-0.9,0.3-1.3c0.1-0.3,0.2-0.5,0.3-0.8c0.3-0.4,0.5-0.8,0.9-1.1C373.7,280.7,373.7,280.7,373.7,280.7
		C373.8,280.7,373.8,280.7,373.7,280.7 M373.4,288.2c0-0.1,0-0.3,0-0.4c0,0-0.1-0.1,0-0.2c0-0.1,0.1-0.1,0.1-0.1
		c0.1-0.3-0.2-0.6-0.3-0.8c-0.3-0.4-0.4-0.7-0.3-1.4c0,0,0,0,0,0c0.2,0.2,0.3,0.4,0.4,0.5c0,0.3,0,0.7,0.1,0.9
		c0,0.1,0.1,0.2,0.2,0.3c0.1,0.1,0.2,0.2,0.2,0.3c0,0.2-0.1,0.3-0.1,0.5c-0.1,0.4-0.1,0.9,0.1,1.1c0.1,0.1,0.3,0.2,0.3,0.3
		c0,0.1-0.2,0.2-0.2,0.3c-0.2-0.1-0.3-0.3-0.4-0.5c0-0.1-0.1-0.3-0.1-0.4C373.3,288.5,373.4,288.4,373.4,288.2 M374.4,288.6
		c-0.1-0.3,0.1-0.6,0.1-1c0-0.2-0.1-0.4-0.2-0.6c-0.1-0.3-0.3-0.5-0.3-0.8c0-0.4,0.2-0.6,0.3-1c0-0.1,0.1-0.3,0.1-0.5c0,0,0,0,0,0
		c0.1,0,0,0.1,0.1,0.1c0,0.1,0.1,0.2,0.1,0.3c0,0,0,0.1,0.1,0.1c0,0.1-0.1,0.3-0.1,0.4c0,0.2,0.1,0.3,0.1,0.5c0,0.1,0,0.2-0.1,0.3
		c0,0.2-0.1,0.4,0,0.7c0,0.1,0.1,0.3,0.1,0.4c0.1,0.2,0.2,0.4,0.1,0.7c0,0.2-0.1,0.5-0.1,0.7C374.5,288.8,374.4,288.7,374.4,288.6
		 M374.6,289.5C374.6,289.4,374.7,289.4,374.6,289.5c0.2,0.2,0.3,0.4,0.2,0.6c-0.1,0-0.2,0-0.3,0
		C374.6,289.9,374.7,289.6,374.6,289.5 M374.8,289c0-0.2,0.1-0.4,0.1-0.6c0-0.1,0-0.3,0-0.4c0-0.4-0.4-0.8-0.3-1.3
		c0.1,0,0,0.1,0.1,0.1c0.1,0,0.1,0,0.1-0.1c0.1-0.4-0.3-0.7-0.1-1.2c0.1,0.1,0.1,0.2,0.2,0.2c0,0.1,0.1,0.3,0.1,0.4
		c0,0.1-0.1,0.2-0.1,0.3c0,0.3,0.2,0.4,0.3,0.6c0,0.4,0,0.8,0.1,1.1c0.1,0.2,0.2,0.3,0.3,0.4c0,0,0.1,0.1,0.1,0.2
		c0.1,0.4,0.1,0.8-0.2,1c-0.1,0.1-0.2,0.1-0.3,0.2c-0.1,0.1-0.1,0.2-0.1,0.2c0-0.1,0-0.2,0-0.3c0-0.1-0.1-0.1-0.1-0.2
		C374.9,289.4,374.8,289.2,374.8,289 M375.6,287.7c0,0.1-0.1,0.2-0.1,0.3c-0.2-0.2,0-0.5,0-0.8c0-0.3-0.3-0.5-0.2-0.8
		c0.1,0.1,0.1,0.1,0.1,0.3c0,0,0,0.1,0.1,0.1c0,0,0,0.1,0,0.1c0,0.1,0.1,0.1,0.1,0.2c0,0.1-0.1,0.2-0.1,0.4
		C375.6,287.6,375.6,287.7,375.6,287.7 M377.2,289.9c0.1-0.2,0.2-0.5,0.2-0.8c0-0.3-0.1-0.5-0.1-0.8c0.1-0.3,0.2-0.5,0.4-0.8
		c0.1-0.2,0.2-0.4,0.2-0.6c0-0.1,0-0.3,0-0.4c0-0.1-0.1-0.3-0.2-0.4c0-0.1,0.1-0.2,0.1-0.3c0.1-0.1,0.1-0.1,0.2-0.2
		c0,0,0-0.1,0.1-0.1c0-0.1,0.1-0.2,0.1-0.4c0,0,0,0,0,0c0,0,0,0,0,0c0,0.3-0.1,0.7,0,0.9c0,0,0,0.1,0.1,0.1c0,0,0,0.1,0.1,0.1
		c0.1,0.2,0.2,0.3,0.3,0.4c0,0.1,0,0.3,0,0.3c0,0.1-0.1,0.1-0.1,0.3c0,0.2,0.1,0.3,0,0.5c0,0.1-0.1,0.2-0.2,0.3
		c-0.1,0.2,0,0.4,0,0.5c0,0.1,0,0.2-0.1,0.3c0,0.3-0.1,0.5-0.2,0.7c-0.1,0-0.1,0.1-0.2,0.1c0,0-0.1,0.1-0.2,0.1
		c-0.1-0.1,0-0.2,0-0.2c0.1-0.3,0.5-0.7,0.2-1.1c0,0.2,0,0.4-0.1,0.6c0,0.1-0.2,0.1-0.2,0.2c0,0,0,0.1-0.1,0.1
		c-0.1,0.2,0,0.4-0.1,0.6c-0.1,0.2-0.5,0.4-0.8,0.2C376.9,290.3,377.1,290.1,377.2,289.9 M378.5,280.8c0.2,0,0.3,0.1,0.4,0.2
		c0.3,0.4,0.3,1.1,0.5,1.6c0,0.1,0.1,0.2,0.1,0.3c0.1,0.4,0.1,0.8,0.1,1.2c0,0.4,0,0.9,0,1.3c0,0.7,0.2,1.4,0.1,2.1
		c0,0.1,0,0.2,0,0.3c-0.1,0-0.1-0.1-0.1-0.1c-0.1-0.2-0.1-0.3-0.1-0.5c0-0.1,0-0.3,0-0.4c0-0.4,0-0.8-0.2-1.2c0-0.1-0.1-0.2-0.1-0.2
		c0-0.1,0.1-0.1,0.1-0.2c0.1-0.5-0.3-0.8-0.2-1.3c0-0.2,0-0.4,0-0.5c0-0.5-0.2-0.9-0.4-1.2c0.1-0.1,0.3-0.2,0.3-0.4
		c0-0.2,0-0.4,0-0.6c0-0.1-0.1-0.3-0.2-0.3c-0.2-0.1-0.5,0-0.6,0.1c0,0-0.1,0.1-0.1,0.1c-0.1,0-0.1,0.1-0.2,0.1
		C378,281,378.2,280.8,378.5,280.8 M377.3,279.9c0.2,0,0.2,0.2,0.4,0.2c0.1,0,0.3,0,0.4,0c0.1,0,0.2,0.1,0.2,0.2
		c0,0,0.1,0.1,0.1,0.1c0,0.1-0.1,0-0.1,0.1c-0.1,0.1-0.3,0.2-0.4,0.3c-0.1,0.1-0.3,0.2-0.5,0.2c-0.1,0-0.2,0-0.3,0
		c-0.1,0-0.2,0.1-0.3,0c0.1-0.1,0.2-0.1,0.3-0.1c0.2-0.1,0.5-0.2,0.5-0.6C377.5,280.3,377.3,280.1,377.3,279.9L377.3,279.9z
		 M376.4,279.7c0.1,0,0.2,0,0.3,0.1c0.1,0,0.2,0.1,0.3,0.1c0.1,0,0.3,0.3,0.3,0.4c0,0.1,0,0.3-0.1,0.4c-0.1,0.1-0.3,0.2-0.4,0.2
		c-0.1,0-0.1,0-0.2,0.1c-0.1,0-0.1,0.1-0.2,0.1c0-0.1,0.1-0.1,0.1-0.2c0,0,0.1-0.1,0.1-0.2c0.2,0,0.6-0.1,0.6-0.3
		c0-0.1-0.1-0.1-0.1-0.2c0,0,0-0.1-0.1-0.1c-0.1-0.1-0.2-0.1-0.3-0.2c0,0-0.1-0.1-0.2-0.1C376.5,279.8,376.4,279.8,376.4,279.7
		C376.4,279.7,376.4,279.7,376.4,279.7 M374.4,279.2c0.5,0.1,0.9,0.3,1.3,0.5c0.3,0.1,0.5,0.2,0.8,0.3c0,0,0.1,0.1,0.1,0.1
		c0.1,0,0.2,0.1,0.2,0.1c0,0,0.1,0,0.1,0.1c-0.1,0-0.1,0-0.2-0.1c-0.4-0.2-0.8-0.4-1.3-0.5c0.1,0.1,0.2,0.1,0.2,0.1
		c0.5,0.1,0.9,0.4,1.3,0.7c0.1,0,0.2,0.1,0.2,0.2c-0.1,0-0.2,0-0.2-0.1c-0.4-0.3-0.9-0.6-1.5-0.7c0,0.1,0.1,0.1,0.2,0.1
		c0.3,0.1,0.6,0.2,0.8,0.4c0.1,0,0.2,0.1,0.2,0.2c0.1,0,0.2,0.1,0.2,0.2c-0.1,0.1-0.3,0-0.5-0.1c-0.1-0.1-0.2-0.1-0.3-0.2
		c-0.2-0.1-0.5-0.2-0.8-0.2c-0.2,0-0.3,0-0.5-0.1c-0.1,0-0.2-0.1-0.4-0.1c-0.1,0.1,0.1,0.1,0.2,0.2c0,0,0.1,0,0.1,0
		c0.2,0,0.4,0,0.6,0.1c0.1,0,0.4,0.1,0.4,0.2c0,0.1-0.5,0-0.7,0c-0.3,0-0.5,0-0.8,0c-0.2,0-0.5-0.1-0.6-0.2c0-0.1-0.1-0.1-0.1-0.2
		c0-0.1,0-0.1,0-0.3c0-0.1-0.1-0.1-0.1-0.2c0-0.1,0,0,0.1,0c0,0,0.1,0,0.1,0c0,0,0.1,0,0.2,0c0.1,0,0.1-0.1,0.2-0.1
		C374.2,279.3,374.3,279.2,374.4,279.2 M374.1,278.8c0.1,0,0.2,0.1,0.2,0.1c0,0.1-0.1,0.1-0.3,0.1c-0.1,0-0.1,0.1-0.2,0.1
		c0,0-0.1,0-0.1,0c-0.1,0-0.1,0-0.2,0.1c0,0-0.1,0-0.1,0c-0.1,0-0.1,0-0.1,0.1c-0.1,0-0.1,0-0.2,0.1c-0.1,0-0.3-0.1-0.2-0.2
		c0-0.1,0.3-0.1,0.4-0.1c0.1,0,0.3,0,0.4-0.1C373.9,278.9,374,278.8,374.1,278.8 M374.1,278.5L374.1,278.5c0.1,0.1,0,0.2-0.1,0.3
		c-0.2,0.1-0.6,0.2-0.9,0.2c-0.1,0-0.3,0-0.3-0.2C373.3,278.9,373.9,278.8,374.1,278.5 M373.1,275.7c0.3,0.7,0.5,1.5,0.7,2.3
		c0,0.1,0.1,0.3,0.1,0.4c0,0.1-0.4,0.2-0.5,0.2c-0.1,0-0.2,0-0.3,0c-0.1,0-0.1-0.2-0.2-0.3c-0.3-0.5-0.8-2.2-1-2.8
		c-0.1-0.2-0.1-0.4-0.1-0.6c0-0.1,0-0.3,0-0.7c0.3-0.1,0.6-0.2,1-0.2c0,0.2,0.1,0.2,0.1,0.5c0,0.1,0,0.2,0,0.3l0,0.3
		c0,0.1,0,0.2,0,0.3C373,275.4,373.1,275.6,373.1,275.7 M373,272.9C373,272.9,373.1,272.9,373,272.9c0.1,0.1-0.2,0.2-0.3,0.2
		c-0.4,0.1-0.8,0.3-1.2,0.5c-0.1,0.1-0.1,0.2-0.3,0.1c0-0.1,0.1-0.1,0.1-0.2c0.1,0,0.1-0.1,0.2-0.1c0.3-0.1,0.5-0.3,0.9-0.4
		C372.6,273,372.8,273,373,272.9L373,272.9z M372.9,272.8c-0.1,0-0.2,0-0.3,0c0-0.1,0-0.2-0.1-0.3c0.1,0,0.2-0.1,0.3-0.1
		C372.8,272.6,372.9,272.7,372.9,272.8 M372.2,269.8c0,0.1,0.1,0.1,0.1,0.2c0.1,0.4,0.2,0.8,0.2,1.1c0,0.2,0.1,0.4,0.1,0.6
		c0,0.2,0.1,0.4,0.1,0.5c-0.1,0-0.2,0-0.2,0c-0.4,0-0.9,0-1.4,0.2c0-0.1,0-0.1,0-0.1c0,0,0,0,0-0.1c0-0.1,0-0.1,0-0.3
		c0-0.1,0-0.3,0-0.2c0-0.1-0.2-0.4-0.2-0.2c0,0.1,0,0.1,0,0.2c0,0.3,0,0.3,0,0.7c0,0.1,0,0.7,0,0.9c-0.1,0-0.1,0-0.2,0
		c-0.1,0-0.2,0.1-0.3,0.1c-0.1,0-0.3,0.1-0.4,0c-0.1,0-0.3-0.1-0.4-0.1c-0.1,0-0.2-0.1-0.3-0.2c-0.3-0.1-0.4,0.2-0.7,0.2
		c0.1-0.3,0.3-0.6,0.5-0.9c0.2-0.4,0.5-0.8,0.8-1.1v0c0.1-0.1,0.2-0.3,0.4-0.4c0.1-0.2,0.3-0.4,0.5-0.5c0.1,0,0.1-0.1,0.2-0.1
		c-0.1,0.3-0.2,0.5-0.4,0.7c-0.1,0.1-0.1,0.1-0.2,0.2c-0.1,0-0.1,0.1-0.2,0.1v0c0,0.2,0.2,0.2,0.3,0.1c0.1-0.1,0.2-0.3,0.4-0.5
		c0.3-0.5,0.7-1.1,1.2-1.5C372.1,269.5,372.2,269.7,372.2,269.8 M365.4,282.3c-0.1,0-0.2,0-0.3-0.1c0-1.1,0-2.2,0.1-3.1
		c0-0.3,0-0.5,0-0.8c0-0.3,0-0.5,0-0.7c0-0.6,0-1.1,0.1-1.8c0.1-0.1,0.3-0.2,0.4-0.3c0,0,0,0,0,0c0.1,0.3,0,0.6,0,0.9
		c0,0.3,0.1,0.6,0,0.9c0,0.1-0.1,0.2-0.1,0.3c0,0.1,0,0.2-0.1,0.3c0,0.1,0,0.3-0.1,0.5c0,0,0,0.1,0,0.1c0,0,0,0,0,0.1
		C365.4,279.7,365.4,281,365.4,282.3 M365.2,282.8c0,0.5,0,1-0.1,1.5c0,0.2,0,0.4,0,0.6c0,0.2,0,0.4,0,0.5c-0.1,0-0.1-0.1-0.2-0.1
		c0.1-0.9,0.2-1.9,0.3-2.9c0,0,0,0,0,0C365.3,282.6,365.2,282.7,365.2,282.8 M366.2,276.8c0-0.1,0.1-0.2,0.2-0.3
		c0.1-0.3,0.2-0.4,0.4-0.7c0.1-0.1,0.2-0.2,0.3-0.3c0.3,0.1,0.6,0.1,0.9,0.1c0.1,0,0.2,0,0.3,0c0.1,0,0.2,0.1,0.3,0.2
		c0.1,0,0.3,0,0.5,0c-0.1,0.2-0.3,0.3-0.5,0.5c-0.2,0.1-0.3,0.3-0.5,0.5c-0.3,0.3-0.6,0.7-0.9,1c-0.3,0.4-0.5,0.7-0.8,1.1
		c-0.2,0.3-0.4,0.6-0.5,0.9c-0.1,0.1-0.1,0.2-0.2,0.3c0-0.6,0.1-1.2,0.1-1.8c0-0.3,0.1-0.5,0.2-0.8
		C366.1,277.3,366.1,277,366.2,276.8 M366,275.3c0-0.1,0-0.2,0-0.2c0-0.2,0.1-0.3,0.2-0.4c0.1,0.1,0,0.3,0.1,0.4
		c0,0.2,0.1,0.5,0.1,0.7c0,0.2,0,0.3-0.1,0.4c-0.1,0.1-0.1,0.3-0.2,0.4C366,276.1,366,275.7,366,275.3 M367.1,275.4
		c0-0.3,0-0.5,0-0.7c0,0,0,0,0,0C367.1,274.9,367.1,275.2,367.1,275.4 M370,274c0.2-0.1,0.3-0.1,0.4-0.1h0v0c0,0,0,0.1-0.1,0.1
		c-0.1,0.2-0.1,0.4-0.3,0.5c-0.1,0.1-0.2,0-0.4,0c-0.3-0.3-0.9-0.3-1.2-0.1c-0.1,0.1-0.2,0.2-0.4,0.1c0-0.1,0.2-0.2,0.3-0.2
		c0.2-0.1,0.4-0.2,0.6-0.3c0.1,0,0.2-0.1,0.4-0.1c0,0.2,0.1,0.3,0.3,0.2c0,0,0.1,0,0.2-0.1v0C369.9,274,369.9,274,370,274
		 M367.4,280.5c-0.2,0-0.2,0.3-0.3,0.4c-0.2,0.3-0.3,0.6-0.4,1c-0.3,0.8-0.6,1.6-0.9,2.4c0,0.1,0,0.2-0.1,0.2c0-0.1,0-0.2,0-0.3
		c0-0.6,0-1.2,0-1.8c0-0.2,0.1-0.4,0.1-0.7c0-0.2,0-0.3,0-0.5c0-0.1,0-0.3,0.1-0.4c0-0.1,0.1-0.3,0.1-0.4c0-0.1,0.1-0.1,0.1-0.2
		c0.2-0.6,0.5-1.1,0.8-1.5c0.3-0.4,0.6-0.8,0.9-1.1c0.4-0.5,0.8-0.9,1.3-1.2c0.3-0.2,0.6-0.4,0.8-0.7c0.1-0.1,0.1-0.2,0.2-0.3
		c0,0.1,0,0.2-0.1,0.3c-0.1,0.2-0.3,0.5-0.5,0.7c-0.3,0.5-0.7,0.9-1,1.4c-0.1,0.3-0.3,0.5-0.5,0.8c-0.4,0.8-0.8,1.6-1.3,2.4
		c-0.1,0.3-0.3,0.5-0.4,0.8c0.1,0,0.1-0.1,0.2-0.2c0.6-1,1.2-2.1,1.9-3.1c0.3-0.5,0.7-1.1,1.1-1.6c0.3-0.4,0.5-0.8,0.8-1.2
		c0.1-0.1,0.2-0.3,0.3-0.4c0.1-0.1,0.2,0.2,0.1,0.3c0,0.1-0.1,0.2-0.1,0.3c-0.1,0.3-0.2,0.5-0.4,0.8c-0.2,0.3-0.4,0.7-0.5,1
		c-0.3,0.7-0.7,1.4-1.1,2c-0.2,0.3-0.4,0.7-0.6,1c-0.5,0.9-1,1.8-1.5,2.7c0,0.1-0.1,0.2-0.2,0.2c0-0.1,0.1-0.2,0.1-0.3
		c0.2-0.5,0.4-1,0.7-1.5c0.1-0.3,0.3-0.6,0.4-1C367.4,280.8,367.5,280.6,367.4,280.5 M368.3,275.3c-0.1-0.2,0-0.4,0-0.5
		c0.1-0.1,0.3-0.3,0.5-0.3c0.3,0,0.7,0.1,0.8,0.3c0.1,0.3,0,0.7-0.3,0.8C369.1,275.7,368.5,275.6,368.3,275.3 M367.9,274.5
		c-0.1,0.1-0.2,0.1-0.4,0.1c0-0.1,0.1-0.1,0.2-0.2c0.1-0.1,0.1-0.1,0.2-0.2c0.2,0,0.3-0.1,0.4-0.2c0,0,0,0,0,0
		C368.3,274.2,368.1,274.3,367.9,274.5 M367.9,275.3c-0.1,0.1-0.1-0.1-0.1-0.3c0-0.2-0.1-0.4,0.1-0.4
		C367.8,274.9,367.9,275.1,367.9,275.3 M365.6,286.8c0,0.5,0,0.9,0.1,1.4c-0.4-0.1-0.8-0.1-1.2,0c0,0-0.1,0.1-0.1,0.1
		c0,0.1,0.1,0.3,0.2,0.3c0.1,0,0.1,0,0.2,0.1c0.1,0,0.3-0.1,0.5,0c0.1,0,0.1,0.1,0.2,0.1c0.1,0,0.2,0.1,0.2,0.1
		c0.1,0.1,0.2,0.3,0.3,0.4c0.1,0.3,0.1,0.8,0.2,1.1c0.1,0.3,0.1,0.6,0.2,0.9c-0.1,0-0.1,0-0.2,0c-0.2,0-0.4,0-0.6,0
		c-0.1,0-0.3,0-0.5,0c-0.4-1.3-0.7-2.7-1-4.1c0.1-0.1,0.4-0.1,0.5-0.1c0.3-0.1,0.7-0.1,1-0.1C365.4,286.8,365.5,286.8,365.6,286.8
		 M366.2,289.3c0-0.1,0.1-0.3,0.2-0.4c0.1-0.1,0.2-0.3,0.3-0.4c0.3-0.4,0.5-0.8,0.8-1.2c0.1-0.1,0.2-0.3,0.3-0.4
		c0.1-0.2,0.3-0.4,0.4-0.6c0-0.1,0.1-0.1,0.1-0.2c0.1,0.1,0,0.2,0,0.3c-0.1,0.5-0.2,1-0.4,1.4c0,0-0.3,0.4-0.1,0.5
		c0.1,0,0.2-0.2,0.2-0.3c0.2-0.4,0.3-0.7,0.4-1.2c0.1-0.4,0.2-0.8,0.4-1.2c0.1-0.1,0.1-0.3,0.2-0.4c0.1-0.1,0.1-0.1,0.2-0.2
		c0,0,0,0,0,0c0,0.2,0,0.5-0.1,0.8c-0.1,0.4-0.1,0.8-0.2,1.1c-0.1,0.4-0.2,0.9-0.3,1.3c-0.1,0.2-0.1,0.4-0.2,0.6
		c-0.2,0.6-0.4,1.2-0.6,1.8c0,0.1-0.1,0.2-0.1,0.3c-0.1,0.1-0.1,0.3-0.2,0.3c-0.1,0-0.2,0-0.3,0c-0.4-0.1-0.7-0.2-0.9-0.4
		c0-0.2-0.1-0.4-0.1-0.6C366.2,289.9,366.1,289.6,366.2,289.3 M368.4,284.5c-0.1,0.2-0.2,0.4-0.4,0.6c-0.1,0.2-0.2,0.4-0.4,0.6
		c-0.3,0.3-0.6,0.7-0.9,1c-0.3,0.3-0.5,0.6-0.7,1c0,0-0.1,0.1-0.1,0.1c0-0.2-0.1-0.3-0.1-0.5c-0.1-0.5-0.1-1.2-0.1-1.7
		c0-0.4,0.1-0.7,0.3-1c0-0.1,0.1-0.2,0.1-0.3c0.2-0.5,0.4-1,0.7-1.4c0.2-0.4,0.4-0.7,0.6-1c0.4-0.7,0.9-1.3,1.2-2
		c0.3-0.5,0.5-1.1,0.8-1.7c0.2-0.4,0.4-0.7,0.5-1.1c0.1-0.3,0.3-0.5,0.5-0.7c0,0,0,0,0.1,0c0.1,0,0,0.3,0,0.4c0,0.1-0.1,0.3-0.1,0.4
		c-0.3,1.2-0.7,2.3-1,3.4c-0.1,0.2-0.2,0.4-0.2,0.6c-0.1,0.2-0.1,0.5-0.2,0.7c0,0.1-0.1,0.2-0.2,0.3c-0.1,0.1-0.1,0.2-0.1,0.3
		c-0.1,0.2-0.2,0.4-0.3,0.5c-0.1,0.1-0.1,0.2-0.2,0.3c-0.1,0.2-0.3,0.4-0.3,0.7c0,0.1-0.1,0.3,0,0.4c0.1,0,0.3-0.2,0.3-0.3
		c0.1-0.1,0.1-0.3,0.2-0.4c0.4-0.8,0.8-1.7,1.1-2.6c0.3-0.9,0.6-1.8,0.9-2.8c0.1-0.2,0.1-0.5,0.2-0.7c0-0.1,0-0.2,0.1-0.2
		c0,0.3-0.1,0.6-0.1,0.9c0,0.3-0.1,0.5-0.2,0.8c-0.1,0.5-0.3,1-0.4,1.5c-0.3,1-0.6,1.9-1.1,2.8c-0.1,0.2-0.2,0.4-0.3,0.7
		C368.7,284.1,368.5,284.3,368.4,284.5 M370.8,275v-0.2c0,0,0-0.1,0-0.2c0,0,0-0.1,0-0.1c0,0,0,0,0,0c0,0,0,0,0,0c0,0.1,0,0.2,0,0.4
		c0,0.1,0,0.2,0,0.2C370.8,275.1,370.8,275,370.8,275 M370.8,269.4c-0.1,0.2-0.4,0.4-0.6,0.5c-0.4,0.3-0.9,0.6-1.3,1
		c-0.1,0.1-0.2,0.2-0.3,0.3c-0.1,0.1-0.3,0.2-0.3,0.5c0.2,0,0.3-0.2,0.4-0.3c0.4-0.3,0.7-0.6,1-0.9c0,0,0.1,0,0.1-0.1v0
		c0.2-0.2,0.4-0.3,0.7-0.5c0.1-0.1,0.2-0.2,0.4-0.3c0,0,0.1,0,0.1,0h0c0.1-0.1,0.2-0.2,0.4-0.2c0.1,0,0.1,0,0.2-0.1
		c0.1,0,0.3-0.2,0.5,0c-0.1,0.1-0.3,0.2-0.4,0.3c-0.2,0.1-0.4,0.3-0.6,0.4c-0.1,0.1-0.1,0.1-0.2,0.2c-0.3,0.2-0.5,0.5-0.7,0.8
		c-0.1,0.2-0.3,0.3-0.4,0.5c-0.2,0.3-0.5,0.6-0.7,0.9c-0.4,0.6-0.8,1.3-1.4,1.8c-0.1,0.1-0.6,0.4-0.6,0c0.1,0,0.2,0,0.3,0
		c0.2-0.1,0.3-0.3,0.4-0.4c0.1-0.1,0.2-0.2,0.1-0.3c-0.1,0-0.2,0.2-0.3,0.3c-0.1,0.1-0.2,0.2-0.4,0.2c-0.4,0-0.6-0.2-0.6-0.7
		c0-0.1,0-0.6,0-0.7c0.1-0.2,0.2-0.3,0.4-0.4c0.3-0.2,0.5-0.4,0.8-0.6c0.1-0.1,0.2-0.1,0.2-0.2c0.2-0.1,0.4-0.2,0.5-0.4
		c0.4-0.3,0.9-0.5,1.4-0.8v0c0.2-0.1,0.4-0.2,0.6-0.3h0C370.6,269.5,370.7,269.4,370.8,269.4 M369.9,268.2c0,0,0-0.1,0-0.2
		c0-0.1,0-0.2,0-0.2c0,0.3,0.1,0.5,0.1,0.7c0,0.2-0.1,0.4-0.2,0.6c-0.5,0.2-1,0.5-1.4,0.8c-0.1-0.3-0.2-0.6-0.3-1
		c0-0.2-0.1-0.3,0-0.4c0-0.1,0.1-0.2,0.1-0.3c0.1,0.1,0.2,0.1,0.2,0.2c0.2,0.1,0.4,0.3,0.7,0.3c0.1,0,0.2,0,0.3,0c0.1,0,0.3,0,0.4,0
		c0.1,0,0.1-0.2,0.1-0.3C369.9,268.3,369.9,268.2,369.9,268.2 M370.1,268.9c0-0.1,0-0.2,0.1-0.3c0.1,0,0.2,0.1,0.3,0.1
		C370.4,268.8,370.2,268.8,370.1,268.9 M367.7,265.5c0-0.2,0.1-0.3,0.1-0.4c0-0.1,0.1-0.1,0.1-0.2c0.3-0.3,0.6-0.4,1-0.6
		c0-0.1,0-0.2,0-0.3c0,0.1,0,0.2,0.1,0.3c0.3,0.1,0.5,0.2,0.7,0.4c0.2,0.2,0.4,0.4,0.5,0.7c0,0.2,0,0.3,0.1,0.4
		c0.1,0.1,0.2,0.2,0.1,0.4c0,0.6-0.4,1.4-0.8,1.7c-0.2,0.1-0.5,0.3-0.8,0.3c-0.3,0-0.5-0.2-0.7-0.4c-0.1-0.1-0.3-0.4-0.4-0.6
		c-0.2-0.3-0.3-0.6-0.3-1C367.5,266,367.7,265.8,367.7,265.5 M367.8,268.6C367.8,268.6,367.8,268.6,367.8,268.6
		c0.1,0.4,0.1,0.7,0.2,1.1c0,0.1,0.1,0.2,0.1,0.3c-0.1,0.1-0.2,0.2-0.4,0.2c-0.2-0.4-0.2-0.9-0.2-1.5
		C367.6,268.7,367.7,268.6,367.8,268.6 M367.4,270.7c0.1,0.1,0.3,0.1,0.3,0.3c0,0.1-0.3,0.3-0.4,0.4c0,0-0.1,0-0.1,0
		c0-0.1,0.1-0.2,0.1-0.2c0.1-0.1,0-0.3,0-0.3C367.2,270.8,367.3,270.8,367.4,270.7 M365.3,272.4c0.1-0.5,0.1-1,0.3-1.5
		c0.1-0.4,0.2-0.8,0.4-1.2c0.1-0.1,0.1-0.2,0.2-0.3c0,0,0-0.1,0.1-0.1c0.1-0.1,0.2-0.2,0.4-0.3c0,0,0.1,0,0.1,0
		c0.1-0.1,0.3-0.1,0.5-0.2c0,0,0,0,0,0l0,0c0,0.4,0,0.7,0.1,1.1c0,0.2,0.1,0.4,0.1,0.5c-0.3,0.2-0.5,0.4-0.8,0.5
		c-0.1-0.1,0-0.2-0.1-0.2c0,0.1-0.1,0.1-0.1,0.2c0,0.1,0.1,0.2,0.1,0.3c0,0.1,0,0.5,0,0.7c0,0.1-0.1,0.5-0.1,0.7c0,0.1,0,0.2,0,0.3
		c-0.3-0.1-0.8-0.2-1.1-0.3C365.2,272.6,365.2,272.5,365.3,272.4 M365,273.5c0.5,0,0.9,0.2,1.2,0.4c0,0,0,0.1,0,0.1
		C365.8,273.8,365.4,273.7,365,273.5C365,273.5,365,273.5,365,273.5 M362.6,274.4c0,0,0-0.1,0-0.1c0,0,0.1-0.1,0.1-0.1
		c0-0.1,0-0.2,0.1-0.2c0.5,0.1,1.1,0.2,1.6,0.4c0.1,0,0.2,0.1,0.3,0.1c0.1,0,0.2,0.2,0.2,0.2c0.1,0,0.1,0,0.2,0
		c0.2-0.2-0.1-0.4-0.3-0.4c0-0.1,0-0.2,0-0.2c0,0,0.2,0,0.2,0c0.3,0.1,0.7,0.2,0.9,0.3c-0.1,0.4-0.3,0.6-0.4,1
		c-0.1,0.1-0.2,0.4-0.4,0.4c-0.1,0-0.4-0.1-0.5-0.1c-0.2,0-0.3-0.1-0.5-0.1c-0.2,0-0.3-0.1-0.4-0.2c-0.5-0.2-0.9-0.4-1.3-0.6
		C362.4,274.5,362.6,274.5,362.6,274.4 M362.5,273.7c0,0,0.1,0,0.1,0c-0.1,0-0.2,0.2-0.1,0.3c-0.1,0.1-0.1,0.1-0.1,0.2
		c-0.1,0-0.1,0.1-0.1,0.2c0,0-0.1,0.1-0.1,0.1c0,0,0,0,0,0.1c-0.1,0-0.1,0.1-0.2,0.2c0,0,0-0.1-0.1-0.1
		C362.2,274.4,362.3,274,362.5,273.7 M362.2,273.5c0,0,0.1,0,0.1,0c0.1,0.2,0,0.4-0.1,0.6c-0.1,0.1-0.2,0.4-0.3,0.4
		c-0.1,0-0.2,0-0.2-0.1c0,0,0.1-0.1,0.2-0.2C361.9,274.1,362.1,273.8,362.2,273.5 M359.8,271.8c0.1,0,0.1,0.1,0.1,0.1
		c0.1,0.1,0.2,0.2,0.3,0.3c-0.1-0.1-0.3,0-0.4-0.1C359.8,272,359.7,271.8,359.8,271.8 M360.6,272.6c-0.1,0-0.2-0.1-0.3-0.1
		c-0.2-0.1-0.5,0-0.6,0C359.6,272,360.7,272.2,360.6,272.6 M359.7,272.6c0,0,0.2,0,0.2-0.1c0.2,0,0.3,0.1,0.5,0.2
		c0.1,0.1,0.2,0.1,0.2,0.2c0,0.1-0.1,0.1-0.2,0.1c-0.2,0-0.3-0.1-0.5-0.1c-0.1,0-0.1,0.1-0.2,0.1
		C359.7,272.9,359.7,272.7,359.7,272.6 M359.8,273c0.1-0.1,0.4-0.1,0.6,0c0.1,0,0.2,0.1,0.2,0.2c-0.2,0-0.5-0.1-0.7,0.1
		C359.8,273.2,359.8,273.1,359.8,273 M360.2,273.4c-0.1,0-0.1,0.1-0.1,0.2c-0.1,0-0.2-0.3,0-0.4c0.2-0.1,0.6,0,0.6,0.2
		C360.6,273.5,360.3,273.4,360.2,273.4 M360.5,273.6c0-0.1,0.2-0.1,0.2-0.2c0-0.1-0.1-0.1-0.1-0.2c0.1,0,0.1,0.1,0.2,0.2
		c0,0,0.2,0.2,0.3,0.2c0.1,0,0.3,0,0.2-0.2c-0.1,0-0.2,0-0.3-0.1c-0.1-0.1-0.2-0.3-0.3-0.4c0.1-0.1,0-0.2-0.1-0.3
		c0-0.2,0-0.3-0.1-0.4c0,0,0,0,0,0c0,0,0,0,0,0c0.2,0.1,0.3,0.1,0.5,0.2c0.3,0.2,0.5,0.4,0.5,0.8c0.1,0.1,0.3,0.1,0.3,0.2
		c-0.1,0.3-0.1,0.5-0.3,0.6c-0.1-0.1-0.2-0.2-0.4-0.3c-0.1,0.1-0.6,0.1-0.7,0C360.6,273.9,360.5,273.7,360.5,273.6 M362.9,283.4
		c-0.2-1-0.5-2-0.7-3.1c-0.1-0.3-0.1-0.5-0.2-0.8c-0.1-0.3-0.1-0.5-0.2-0.8c-0.3-1.5-0.8-3.1-1.1-4.6c0,0,0,0,0,0
		c0.2,0.1,0.5,0.1,0.7,0.1c0,0.2,0,0.4,0.3,0.4c0,0.1,0,0.2,0.1,0.3c0.2,0,0.3,0,0.4-0.1c0.9,0.4,1.7,0.8,2.8,1
		c0,1.1-0.1,2.2-0.1,3.4c0,0.4-0.1,0.8-0.1,1.2c0,0.7-0.1,1.5-0.1,2.2c-0.1,0.5-0.1,1.1-0.2,1.6c0,0.2,0,0.4,0,0.6
		c0,0.2-0.1,0.4,0,0.5c0,0,0.1,0.1,0.1,0.1c0.2,0.2,0.6,0.3,0.9,0.5c0,0.1,0,0.1,0,0.2c-0.6,0.1-1.2,0.2-1.8,0.3
		C363.5,285.4,363.2,284.4,362.9,283.4 M364.4,295.1c0.1,0.1,0.2,0.3,0.2,0.4C364.5,295.4,364.5,295.2,364.4,295.1 M364.7,293.5
		c-0.3,0.1-0.7,0.1-1,0.2c-0.2,0-0.3,0-0.5,0c-0.3,0-0.5,0-0.7-0.1c-0.1-0.1-0.2-0.1-0.3-0.2c-0.1-0.1-0.2-0.2-0.1-0.5
		c0,0,0,0,0-0.1c0,0,0-0.1,0-0.1c0-0.1,0.1-0.1,0.1-0.2c0-0.1-0.1-0.2-0.1-0.2c-0.2,0-0.3,0-0.3,0.1c0,0,0,0,0,0.1
		c0,0-0.1,0.1-0.1,0.1c0,0-0.1,0-0.2,0c-0.1,0-0.2,0-0.3-0.1c-0.2-0.1-0.4-0.3-0.5-0.5c0-0.2-0.1-0.2-0.1-0.4c0-0.1,0-0.3,0.1-0.4
		c0-0.1,0.2-0.2,0.1-0.4c0,0-0.1-0.1-0.1-0.1c0-0.1,0-0.1-0.1-0.2c-0.1,0-0.2,0-0.2,0.1c-0.1,0.1-0.1,0.4-0.2,0.5c0,0.3,0,0.5,0,0.8
		c0,0.2,0.1,0.2,0.2,0.4c0.1,0.1,0.2,0.3,0.4,0.4c0,0,0,0,0,0c0.1,0.1,0.4,0.2,0.4,0.4c0.1,0,0.2,0.1,0.4,0.2
		c0.1,0.1,0.4,0.1,0.5,0.3c0.1,0,0.3,0.1,0.4,0.2c0.5,0.2,0.9,0.4,1.4,0.6c0.2,0.1,0.4,0.2,0.5,0.3c0.1,0.1,0.2,0.2,0.3,0.3
		c0,0,0,0,0,0c-0.1,0-0.2-0.2-0.3-0.1c0,0.1,0.1,0.2,0.2,0.3c0,0,0,0,0,0.1c0,0,0.1,0.1,0.1,0.1c-0.1,0-0.1-0.1-0.2-0.2
		c0-0.1-0.1-0.1-0.2-0.1c0,0,0,0.1,0,0.1c0,0-0.1-0.1-0.1-0.1c-0.1,0.1,0.1,0.2,0.1,0.2c-0.1,0-0.1-0.1-0.2-0.1c0,0,0,0.1,0,0.1
		c0,0,0-0.1-0.1-0.1c0,0.1,0,0.1,0,0.2c0,0.1,0.1,0.1,0.1,0.2c0,0.3-0.1,0.6,0,0.8c-0.2-0.2-0.1-0.5-0.1-0.8c0-0.1-0.1-0.3-0.2-0.4
		c-0.4-0.5-1.1-0.9-1.8-1.1c-0.1-0.1-0.4-0.1-0.6-0.2c-0.5-0.1-0.9-0.3-1.3-0.5c-0.2-0.1-0.4-0.3-0.5-0.5c-0.1-0.1-0.2-0.3-0.3-0.4
		c-0.1-0.1-0.1-0.2-0.1-0.4c0-0.1,0-0.2,0-0.4c0-0.2,0-0.3,0-0.5c0-0.3,0.2-0.8,0.3-1c0.1-0.3,0.3-0.5,0.5-0.7
		c0.2-0.2,0.4-0.4,0.6-0.7c0.2-0.3,0.3-0.6,0.6-0.8c0.1-0.1,0.3-0.2,0.5-0.3c0.5-0.3,1-0.4,1.7-0.5c0.3,1.1,0.6,2.3,0.9,3.4
		c0,0.2,0.1,0.3,0.1,0.5c-0.2,0-0.7-0.2-0.8-0.1c-0.2,0.1,0,0.3,0.2,0.3c0,0-0.1,0-0.1,0c-0.1,0-0.2,0.1-0.3,0.1c0,0-0.1,0-0.1,0
		c-0.1,0-0.2,0.1-0.2,0.2c-0.1,0.1,0,0.3,0.2,0.2c0.1-0.1,0.2-0.2,0.3-0.3c0.3-0.1,0.6-0.2,0.9-0.2c0.1,0.5,0.2,0.9,0.3,1.4
		c-0.3,0-0.7,0.1-1,0c-0.2-0.1-0.3-0.1-0.5,0c0,0,0.1,0.1,0.1,0.1c0,0.2-0.3,0.1-0.3,0c-0.1,0.2,0.2,0.4,0.5,0.5c0,0,0.1,0,0.1,0
		c0.4,0,0.9-0.1,1.2-0.2C365,293.5,364.8,293.5,364.7,293.5 M365.4,293.3C365.4,293.3,365.4,293.3,365.4,293.3
		c0-0.1,0.1-0.1,0.1-0.1c0.4-0.1,0.9-0.1,1.4-0.2c0,0,0.1,0,0.1,0C366.5,293.2,365.9,293.2,365.4,293.3 M366.6,292.8
		c-0.5,0-0.9,0-1.3,0.1c-0.1-0.5-0.2-0.9-0.3-1.4c0.5,0,1,0.1,1.5,0.1c0.1,0.1,0.1,0.1,0.1,0.2c0.1,0.1,0.2,0.2,0.3,0.2
		c0.1,0.1,0.1,0.1,0.2,0.2c0,0,0.1,0.1,0.1,0.1c0.1,0.1,0.1,0.1,0.2,0.2c-0.1,0.1-0.2,0.1-0.3,0.2
		C367,292.8,366.8,292.8,366.6,292.8 M367.7,293.7C367.7,293.7,367.7,293.7,367.7,293.7c0-0.1,0.2-0.1,0.2,0
		C367.9,293.9,367.6,293.9,367.7,293.7 M369,292.8c-0.1,0.2-0.1,0.4-0.3,0.6c0,0-0.1,0-0.1,0c-0.2,0.1-0.2,0.6-0.5,0.4
		c-0.1-0.2,0.2-0.2,0.3-0.1c0-0.1-0.1-0.1-0.3-0.1c0-0.2,0.2-0.3,0.3-0.4c0-0.1,0-0.1,0-0.1c-0.1-0.1-0.2,0-0.2,0.1
		c0,0.1-0.2,0.2-0.2,0.3c-0.1,0.1-0.1,0.2-0.2,0.1c0-0.3,0.2-0.3,0.3-0.5c0,0,0,0,0-0.1c-0.2,0-0.1,0.2-0.3,0.3
		c-0.1,0.1-0.1,0.3-0.2,0.4c0,0-0.1,0-0.1,0c0,0,0-0.1,0-0.1c0,0,0,0,0.1-0.1c-0.1-0.2,0.1-0.4,0.2-0.5c-0.1-0.2-0.3,0.2-0.3,0.3
		c0,0.1,0,0.2-0.1,0.2c-0.1,0,0-0.3,0-0.4c0-0.1,0.1-0.1,0.2-0.2c-0.1,0-0.2,0.1-0.2,0.1c0,0,0,0.1-0.1,0.1c-0.1,0,0-0.1,0-0.2
		c0.1-0.1,0.1-0.2,0.3-0.2c0.1,0,0.1-0.1,0.1-0.2c0.1-0.1,0.5,0,0.7,0c0.1,0,0.3,0,0.4,0.1c0.1,0,0.3,0,0.3,0.1
		C369.1,292.7,369,292.7,369,292.8 M367.9,292.2c0.1-0.2,0.2-0.4,0.3-0.7h0C368.1,291.8,368,292,367.9,292.2
		C367.9,292.2,367.9,292.2,367.9,292.2 M369.8,285.1c0,1-0.1,2-0.1,3c0,1.2-0.1,2.4-0.2,3.4c-0.2,0-0.4-0.1-0.7-0.2
		c-0.3,0-0.5-0.1-0.8-0.1c0.4-1.3,0.8-2.6,1.1-4.1c0.2-0.9,0.4-1.7,0.5-2.6c0,0,0,0,0,0C369.8,284.6,369.8,285,369.8,285.1
		 M369.5,283.9c-0.1,0.2-0.3,0.3-0.4,0.5c-0.1,0.1-0.1,0.2-0.2,0.2c0.5-1.3,1.1-2.6,1.5-4c0.2-0.7,0.4-1.4,0.6-2.1
		c0.2-0.8,0.3-1.6,0.3-2.4c0,0,0,0,0,0c0,0,0,0,0,0c0.1,0.1,0.2,0.2,0.2,0.4c0.2,0.5,0.3,1,0.4,1.5c0.1,0.4,0.1,0.7,0.1,1.1
		c0,0.2,0,0.4,0,0.6c0,0.2,0,0.4,0,0.6c0,0.2-0.2,0.4-0.3,0.6c-0.1,0.2-0.2,0.4-0.4,0.6c-0.2,0.4-0.5,0.7-0.8,1.1
		C370.2,283,369.8,283.5,369.5,283.9 M370.8,287c-0.1-0.9-0.1-1.9,0-2.8c0-0.1,0-0.3,0-0.4c0-0.2,0-0.4,0.2-0.6
		c0.1-0.1,0.2-0.1,0.3-0.2c0.1-0.1,0.1-0.1,0.2-0.2c0-0.1,0.1-0.3,0.1-0.4c0,0,0,0,0,0c0.1,1.9-0.2,3.2-0.4,4.9
		c0,0.5-0.1,0.9-0.1,1.4C370.9,288.4,370.9,287.7,370.8,287 M371.1,290.3c-0.1,0-0.2,0-0.3,0.1c-0.2-0.9-0.4-2-0.5-3
		c-0.1-1.1-0.2-2.2-0.2-3.3c0.1,0,0.1-0.1,0.2,0c0.1,0.1,0.1,0.6,0.1,0.8c0,0.8,0.1,1.7,0.1,2.5c0,0.5,0.1,1.1,0.2,1.6
		C370.8,289.4,371,289.9,371.1,290.3 M369.9,291c0-1.2,0.1-2.5,0.1-3.8c0,0,0,0,0,0c0,0,0,0,0,0c0.1,0,0,0.1,0,0.2
		c0.1,0.5,0.1,1.1,0.2,1.6c0.1,0.6,0.3,1.1,0.3,1.7c-0.1,0.1-0.3,0.1-0.4,0.1C370.1,290.9,370,291,369.9,291 M372.9,292.9
		c-0.2-0.1-0.4-0.3-0.7-0.4c-0.1,0-0.2,0-0.3,0c0,0.1,0.1,0.1,0.2,0.1c0.2,0,0.4,0.1,0.5,0.2c0.1,0,0.2,0.1,0.2,0.2
		c-0.1,0.2-0.4-0.1-0.4-0.2c-0.1,0-0.1-0.1-0.2-0.1c-0.1,0-0.2,0-0.2,0c-0.1,0-0.1,0-0.2-0.1c0,0.2,0.4,0.1,0.5,0.3c0,0,0,0,0,0.1
		c0,0,0.1,0.1,0.1,0.1c0,0,0-0.1,0-0.1c0.3-0.1,0.3,0.2,0.1,0.3c-0.2,0.1-0.4-0.1-0.5-0.1c-0.3,0-0.5,0-0.7,0
		c-0.2,0-0.3-0.2-0.4-0.3c-0.1-0.1-0.3-0.2-0.5-0.2c0.1-0.2,0.2-0.4,0.3-0.6c0.1-0.1,0.5-0.3,0.7-0.2c0.1,0,0.3,0.1,0.4,0.1
		c0.1,0,0.1,0.1,0.2,0.1c0.1,0.1,0.1,0.2,0.2,0.2c0.2,0.1,0.4,0.1,0.6,0.1c0.1,0,0.1,0,0.1,0.1c0,0,0,0.1-0.1,0.1
		c-0.1,0-0.1-0.1-0.1-0.1c-0.1-0.1-0.4-0.1-0.6-0.1c0,0,0.1,0,0.1,0.1c0.3,0.1,0.5,0.2,0.7,0.3C372.8,292.8,373,292.8,372.9,292.9
		 M379.9,292.2c0.1,0.2,0.2,0.3,0.2,0.5c-0.1,0.1-0.1,0.2-0.2,0.2c0-0.1,0-0.3-0.1-0.3c0,0,0,0.1-0.1,0.1c-0.1,0-0.1-0.1-0.2-0.1
		c0,0.1,0.1,0.2,0.1,0.3c0,0.3-0.2,0.4-0.4,0.4c0-0.1,0.2-0.1,0.2-0.2c0-0.1-0.1-0.2-0.2-0.3c-0.1,0,0,0.1-0.1,0.1
		c-0.1,0-0.1-0.2-0.3-0.1c0.1,0.1,0.1,0.2,0,0.3c-0.1,0.1-0.3,0.1-0.4,0.1c-0.2,0-0.4,0-0.6-0.2c-0.1-0.1-0.1-0.2-0.2-0.3
		c-0.1-0.1-0.2-0.1-0.3-0.2c-0.1,0-0.1-0.1-0.1-0.2c-0.1-0.1-0.2-0.1-0.3-0.2c-0.3-0.1-0.8-0.3-1.2-0.3c-0.7-0.1-1.5,0-2.1-0.2
		c-0.2,0-0.5-0.1-0.7-0.1c-0.3,0-0.5,0.1-0.7,0c-0.2,0-0.3-0.2-0.4-0.4c-0.1-0.5-0.1-1-0.4-1.4c-0.1-0.2-0.1-0.4,0-0.6
		c0-0.2,0.1-0.4,0.1-0.6c0-0.2,0-0.4,0.1-0.6c0-0.3,0.2-0.7,0.3-0.9c0.1,0,0.2,0.2,0.2,0.2c0.2,0.1,0.4,0.2,0.5,0.3
		c0.1,0,0.1,0.1,0.2,0.2c0.2,0.4,0.1,0.9,0.3,1.3c0,0.1,0.1,0.1,0.1,0.2c-0.2,0-0.5,0-0.6,0.2c0.1,0.2,0.4,0,0.6,0
		c0.2,0,0.5,0.1,0.6,0.2c0.1,0.1,0.2,0.3,0.4,0.3c0.2,0.1,0.6,0.1,0.9,0.1c0.3,0,0.7,0.1,0.9,0.1c0.4,0.1,0.9,0.3,1.2,0.4
		c0.1,0,0.1,0,0.2,0.1c0.1,0,0.1,0.1,0.2,0.1c0.1,0.1,0.3,0.1,0.5,0.1c0.2,0,0.3,0.1,0.5,0.1c0.1,0.1,0.3,0.1,0.5,0.2
		c0.1,0,0.1,0.1,0.2,0.1c0.1,0,0.2,0,0.3,0c0.1,0,0.2,0.1,0.3,0.2c0.2,0.1,0.3,0.3,0.4,0.5C380.1,292.3,380.1,292.1,379.9,292.2
		 M381.9,292.1c-0.1-0.1-0.3-0.1-0.4-0.1c-0.2,0-0.5-0.1-0.7-0.1c-0.2,0-0.5-0.1-0.7-0.1c0.1-0.1,0.4-0.1,0.6-0.1
		c0.4,0,1.1,0,1.2,0.2c0,0,0,0.1,0,0.2C381.9,292.2,381.9,292.1,381.9,292.1 M383.5,291.5c0.1,0.1,0.2,0.2,0.2,0.3
		c0,0,0,0.1-0.1,0.1c-0.1,0-0.1-0.3-0.4-0.3c0,0-0.1,0-0.1,0.1c-0.1,0.2,0.4,0.3,0.2,0.6c0,0.1-0.2,0.1-0.4,0.1
		c0-0.1,0.1-0.1,0.1-0.2c0-0.2-0.3-0.4-0.5-0.2c0,0.2,0.2,0.3,0.1,0.4c-0.1,0.1-0.3,0.1-0.4,0c0,0,0.1,0,0.2,0c0,0,0,0,0.1-0.1
		c0-0.1-0.1-0.1-0.2-0.2c-0.1-0.1-0.1-0.1-0.2-0.2c0-0.4-0.3-0.4-0.7-0.5c-0.6,0-1.2-0.1-1.8-0.2c0-0.3-0.2-0.3-0.4-0.4
		c-0.3-0.1-0.6-0.1-0.9-0.2c-0.1,0-0.3-0.1-0.4-0.2c0-0.1,0.2-0.2,0.3-0.3c0.3-0.2,0.6-0.4,0.9-0.7c0.6,0.1,1,0.4,1.5,0.6
		c0.1,0.1,0.3,0.1,0.4,0.2c0.1,0.1,0.3,0.1,0.4,0.2c0.6,0.2,1.5,0,2,0.3c0.2,0.1,0.3,0.3,0.3,0.5c-0.1,0-0.1-0.3-0.2-0.3
		c-0.1,0-0.1,0.1-0.1,0.1C383.4,291.4,383.4,291.5,383.5,291.5 M378.2,292.6c-0.2-0.1-0.3-0.3-0.4-0.5c0,0-0.1-0.1-0.2-0.1
		c-0.1,0-0.1-0.1-0.2-0.1c-0.2-0.1-0.4-0.1-0.6-0.2c-0.1,0-0.1,0-0.2,0c-0.1,0-0.2-0.1-0.3-0.1c-0.3-0.1-0.7,0-1-0.1
		c-0.5,0-1-0.1-1.5-0.2c-0.2,0-0.5-0.1-0.7-0.1c-0.1,0-0.1-0.1-0.2-0.1c-0.2,0-0.3,0-0.5,0c-0.1,0-0.1,0.1-0.2,0.1
		c-0.1,0-0.1-0.2-0.3-0.1c-0.1,0.1-0.1,0.2-0.1,0.3c0,0,0.2,0.1,0.2,0.2c0.1,0.1,0.2,0,0.3-0.1c0.4-0.1,0.8,0.1,1.1,0.1
		c0.9,0.1,2,0.1,2.8,0.3c0.1,0,0.3,0,0.4,0.1c0.4,0.1,0.6,0.4,0.9,0.5c0.2,0.2,0.3,0.4,0.6,0.5c0.2,0,0.4,0,0.4-0.1
		C378.8,292.6,378.4,292.7,378.2,292.6 M368.8,267c0,0,0.1,0,0.1,0c0.1,0,0.3,0.1,0.4,0c0.2-0.1,0-0.4,0-0.6c0-0.1,0-0.2,0.1-0.3
		c0,0,0.4,0.2,0.7,0c0,0,0.1,0,0.1-0.1c0,0,0,0,0,0c0,0,0-0.1,0-0.1c0,0-0.1,0.1-0.1,0c-0.2-0.1-0.3-0.2-0.5-0.1
		c-0.2,0-0.3,0.1-0.3,0.1c-0.1-0.3,0.6-0.4,0.8-0.2c0-0.1-0.1-0.2-0.1-0.2c-0.2-0.2-0.7,0-0.8,0.1c-0.1,0.1-0.1,0.6-0.1,0.8
		c0,0.1,0.1,0.1,0.1,0.3c0,0.1,0,0.1-0.1,0.2C369,266.9,368.8,266.8,368.8,267 M369.8,265.9C369.8,266,369.9,266,369.8,265.9
		L369.8,265.9c0.1,0,0.1,0,0.1,0.1c0,0,0,0,0,0c0,0-0.1,0.1-0.2,0.1C369.8,266.1,369.9,266.1,369.8,265.9
		C369.9,266,369.9,266,369.8,265.9 M369.6,265.9C369.6,266,369.6,266,369.6,265.9c0,0.1,0,0.2,0,0.2c-0.2,0-0.3-0.1-0.3-0.1
		S369.5,266,369.6,265.9 M368,266.2c0,0,0.2,0.1,0.3,0.1c0.4,0,0.5-0.3,0.5-0.3c0-0.3-0.2-0.5-0.4-0.5c-0.1,0-0.3,0-0.3,0.1
		c-0.1,0.1-0.2,0.2-0.2,0.3c0.1,0,0.3-0.2,0.6-0.1c0.2,0,0.3,0.2,0.2,0.3c-0.1-0.1-0.1-0.1-0.2-0.1c-0.3-0.1-0.5,0.1-0.6,0.2
		c0,0,0,0-0.1,0C367.8,266.1,367.9,266.1,368,266.2 M368.4,265.9c0,0,0.1,0,0.2,0.1c0,0-0.1,0.1-0.2,0.1
		C368.4,266.1,368.5,266.1,368.4,265.9C368.5,266,368.5,266,368.4,265.9 M368.2,265.9C368.2,266,368.2,266,368.2,265.9
		c0,0.1,0,0.2,0,0.2c-0.2,0-0.3-0.1-0.3-0.1S368.1,266,368.2,265.9"/>
</g>
<polygon class="st3" points="369,143 354.2,254.1 369,246.2 "/>
<polygon class="st3" points="337.4,269.4 280.3,250.7 340.7,285.5 "/>
<polygon class="st3" points="457.7,250.7 389,258.1 400.7,269.3 "/>
<polygon class="st3" points="388.8,306.4 425.1,355.5 395.5,291.8 "/>
<polygon class="st3" points="312.9,355.5 365.7,308.7 349.2,306.3 "/>
<polygon class="st3" points="371.1,307.6 387.9,305.2 394.7,290.1 "/>
<polygon class="st3" points="343.4,290.1 350.1,305.1 367,307.5 "/>
<polygon class="st3" points="350.9,258.6 338.9,269.8 342.2,286.1 "/>
<polygon class="st3" points="387.2,258.6 399.2,269.8 395.8,286.1 "/>
<polygon class="st3" points="384,256.1 369,248 354,256.1 "/>
</svg>
